<?xml version="1.0" encoding="UTF-8"?>
<svg xmlns="http://www.w3.org/2000/svg" viewBox="0 0 467.57 539.033">
  <defs>
    <style>
      .cls-1 {
        fill: #9c1c1f;
      }

      .cls-2 {
        fill: #bc2025;
      }

      .cls-3 {
        fill: #d7324b;
      }
    </style>
  </defs>
  <g id="Layer_3" data-name="Layer 3">
    <g>
      <path class="cls-3" d="M249.841,235.637c-6.117-22.874-25.096-40.421-46.405-45.395s-44.229,1.905-61.606,16.284c-8.009,6.627-15.055,14.934-19.25,24.915-7.376,17.551-5.191,38.135-.392,56.724,14.743,57.106,73.703,115.872,123.434,139.588,56.109-18.141,127.923-82.904,144.048-140.01,5.249-18.59,7.64-39.173-.428-56.724-4.588-9.98-12.295-18.287-21.055-24.915-19.006-14.379-44.075-21.257-67.382-16.284-23.307,4.974-44.066,22.521-50.756,45.395"/>
      <path class="cls-1" d="M251.29,235.248c-3.522-12.998-11.23-24.683-21.654-33.19-10.488-8.56-23.361-13.637-36.908-14.246-14.836-.667-29.637,3.717-42.258,11.406-12.791,7.792-24.075,19.187-29.696,33.243-5.993,14.987-5.162,31.807-2.045,47.353,2.765,13.795,7.544,26.985,13.948,39.502,6.585,12.871,14.631,24.972,23.588,36.309,9.182,11.623,19.343,22.476,30.247,32.498,10.474,9.626,21.656,18.52,33.515,26.383,5.473,3.629,11.097,7.036,16.882,10.144,1.392,.748,2.792,1.478,4.203,2.189,1.137,.574,2.682,1.709,3.965,1.8,1.309,.093,3.026-.837,4.254-1.268,1.372-.481,2.736-.982,4.094-1.503,11.687-4.485,22.846-10.334,33.491-16.899,11.732-7.235,22.878-15.421,33.428-24.287,10.764-9.046,20.915-18.838,30.266-29.34,8.979-10.085,17.268-20.835,24.36-32.335,6.36-10.315,11.817-21.3,15.409-32.898,4.567-14.748,7.273-30.931,4.442-46.28-2.85-15.454-12.173-28.139-24.418-37.645-11.814-9.171-25.919-15.465-40.71-17.811-14.288-2.267-29.097-.84-42.42,4.931-12.163,5.268-22.956,13.879-30.459,24.837-3.614,5.279-6.398,11.1-8.216,17.234-.331,1.119,2.595,.734,2.908-.323,3.872-13.07,12.375-24.469,23.298-32.535,11.468-8.469,25.291-13.154,39.548-13.407,15.393-.273,30.684,4.125,43.931,11.882s25.312,19.082,30.864,33.63c5.892,15.439,4.286,32.577,.397,48.29-3.07,12.4-8.063,24.083-14.424,35.146-6.764,11.762-14.838,22.762-23.668,33.05-9.277,10.809-19.413,20.882-30.183,30.199-10.658,9.22-21.964,17.707-33.881,25.234-10.801,6.823-22.132,12.886-34.035,17.559-2.619,1.028-5.265,1.982-7.941,2.851l1.357,.061c-23-10.999-43.765-26.723-62.107-44.322-19.431-18.645-36.781-40.109-49.085-64.152-5.894-11.519-10.441-23.619-13.26-36.256-3.234-14.5-4.657-29.975-.564-44.457,3.918-13.863,13.353-25.395,24.854-33.807,11.168-8.169,24.481-13.489,38.344-14.376,12.832-.82,25.518,2.511,36.319,9.464,10.538,6.783,19.087,16.743,24.092,28.24,1.225,2.814,2.231,5.716,3.034,8.678,.298,1.1,3.197,.328,2.898-.776h0Z"/>
    </g>
  </g>
  <g id="Layer_6" data-name="Layer 6">
    <path class="cls-2" d="M306.897,235.566c5.909-8.026,11.056-16.596,15.354-25.588,.728-1.522-2.2-1.615-2.786-.388-4.209,8.805-9.228,17.183-15.015,25.042-1.101,1.496,1.614,2.065,2.446,.934h0Z"/>
    <path class="cls-2" d="M318.286,228.322c2.709-2.713,4.987-5.841,6.749-9.245,.266-.513-1.005-.413-1.187-.38-.546,.097-1.399,.299-1.683,.847-1.705,3.293-3.905,6.29-6.525,8.914-.474,.475,.413,.599,.714,.585,.648-.029,1.458-.247,1.931-.721h0Z"/>
    <path class="cls-2" d="M327.646,228.03l2.25-2.25c.157-.157,.351-.388,.285-.635-.063-.235-.352-.367-.564-.408-.355-.068-.737-.043-1.082,.058-.339,.099-.712,.236-.967,.491l-2.25,2.25c-.157,.157-.351,.388-.285,.635,.063,.235,.352,.367,.564,.408,.355,.068,.737,.043,1.082-.058,.339-.099,.712-.236,.967-.491h0Z"/>
    <path class="cls-2" d="M166.758,229.251c5.807-7.504,11.614-15.009,17.421-22.513,1.107-1.431-1.642-1.738-2.4-.759-5.807,7.504-11.614,15.009-17.421,22.513-1.107,1.431,1.642,1.738,2.4,.759h0Z"/>
    <path class="cls-2" d="M176.929,224.922l8.671-11.638c.423-.567-.361-.938-.816-.966-.706-.043-1.478,.248-1.905,.821l-8.671,11.638c-.423,.567,.361,.938,.816,.966,.706,.043,1.478-.248,1.905-.821h0Z"/>
    <path class="cls-2" d="M185.327,224.632l2.812-2.25c.16-.128,.351-.387,.291-.612-.061-.229-.354-.349-.558-.385-.702-.122-1.496,.107-2.049,.549l-2.812,2.25c-.16,.128-.351,.387-.291,.612,.061,.229,.354,.349,.558,.385,.702,.122,1.496-.107,2.049-.549h0Z"/>
  </g>
</svg>