<?xml version="1.0" encoding="UTF-8"?>
<svg xmlns="http://www.w3.org/2000/svg" viewBox="0 0 467.57 539.033">
  <defs>
    <style>
      .cls-1 {
        fill: #9c1c1f;
      }

      .cls-2 {
        fill: #fff;
      }

      .cls-3 {
        fill: #f48183;
      }

      .cls-4 {
        fill: #bc2025;
      }

      .cls-5 {
        fill: #f59193;
      }

      .cls-6 {
        fill: #d7324b;
      }

      .cls-7 {
        fill: #231f20;
      }
    </style>
  </defs>
  <g id="Layer_4" data-name="Layer 4">
    <g>
      <path class="cls-2" d="M172.732,347.033c-8.449,6.163-13.883,15.338-18.732,24.603-4.307,8.23-8.286,17.467-6.301,26.542,.764,3.494,2.504,6.896,5.397,8.999,5.05,3.668,13.12,1.973,16.267-3.418,2.115-3.623,2.036-8.058,2.731-12.195,1.229-7.312,4.973-13.926,7.371-20.942s3.284-15.281-.861-21.429c-1.392-2.064-4.619-4.311-5.872-2.16"/>
      <path class="cls-5" d="M171.8,346.48c-8.95,6.602-14.689,16.328-19.688,26.054-4.86,9.456-10.064,22.58-3.128,32.397,2.66,3.765,7.004,5.552,11.55,5.07,4.353-.462,8.613-2.865,10.592-6.874,1.22-2.472,1.607-5.225,1.93-7.932,.345-2.893,.782-5.716,1.632-8.51,1.725-5.674,4.499-10.958,6.363-16.583,1.828-5.516,2.785-11.822,.889-17.454-.83-2.466-2.17-4.871-4.341-6.385-1.991-1.388-4.764-1.507-6.235,.668-.404,.597,.35,.996,.838,1.048,.702,.074,1.502-.255,1.899-.842,.135-.199-.152-.024-.187-.021,.217-.021,.521,.172,.711,.265,.412,.201,.798,.478,1.15,.769,.885,.735,1.555,1.66,2.118,2.655,1.107,1.956,1.725,4.187,1.989,6.41,.56,4.71-.468,9.541-2.021,13.973-1.719,4.908-4.045,9.581-5.687,14.519-.833,2.504-1.442,5.053-1.783,7.67-.308,2.365-.477,4.765-1.096,7.077-1.054,3.937-3.837,6.974-7.969,7.61s-7.778-1.385-9.993-4.815c-5.843-9.048-1.337-20.872,3.002-29.498,4.86-9.66,10.463-19.623,19.329-26.163,1.58-1.166-.824-1.874-1.864-1.107h0Z"/>
    </g>
    <g>
      <path class="cls-2" d="M331.942,355.212c-1.481-4.867,2.909-8.888,7.686-10.637s10.3-.289,14.382,2.747,6.92,7.451,9.202,11.998c3.702,7.379,6.172,15.374,7.277,23.556,1.017,7.53,.614,15.943-4.418,21.636-3.189,3.607-8.059,5.663-12.868,5.433s-9.46-2.742-12.29-6.638c-3.155-4.343-3.954-10.001-3.645-15.36,.309-5.359,1.616-10.609,2.259-15.939,.246-2.041,.383-4.181-.389-6.087-1.648-4.067-7.087-6.322-7.196-10.709"/>
      <path class="cls-5" d="M333.39,354.824c-1.409-5.1,3.837-9.152,8.379-9.932,5.567-.956,10.964,2.363,14.505,6.374,3.828,4.336,6.395,9.796,8.451,15.153,2.172,5.658,3.686,11.595,4.412,17.614,.622,5.149,.597,10.722-1.439,15.581-2.007,4.79-6.166,8.544-11.411,9.282-5.127,.722-10.357-1.583-13.577-5.583-3.572-4.438-4.332-10.476-3.957-15.991,.241-3.547,.902-7.045,1.492-10.546,.537-3.183,1.414-6.77,.718-9.99-.532-2.463-2.265-4.275-3.98-6.004-1.683-1.697-3.458-3.433-3.594-5.959-.059-1.09-2.964-.461-2.898,.776,.278,5.154,6.537,7.105,7.575,11.963,.697,3.263-.304,6.991-.853,10.218-.594,3.489-1.23,6.983-1.414,10.524-.305,5.878,.689,12.239,4.727,16.783,3.769,4.242,9.615,6.375,15.231,5.659,5.645-.72,10.82-3.968,13.668-8.929,2.868-4.996,3.271-10.993,2.808-16.618-.538-6.522-2.141-13.014-4.447-19.128-2.214-5.87-5.049-11.987-9.389-16.607-4.518-4.81-11.235-7.783-17.85-6.083-5.254,1.35-11.764,6.034-10.055,12.219,.317,1.148,3.215,.372,2.898-.776h0Z"/>
    </g>
    <g>
      <path class="cls-2" d="M347.815,407.534c.9-2.761,1.56-5.6,1.972-8.475"/>
      <path class="cls-5" d="M349.264,407.356c.896-2.765,1.555-5.599,1.972-8.475,.167-1.149-2.754-.648-2.899,.356-.417,2.876-1.077,5.71-1.972,8.475-.203,.627,.904,.688,1.255,.637,.591-.085,1.436-.352,1.644-.993h0Z"/>
    </g>
    <g>
      <path class="cls-2" d="M354.013,409.179c.823-2.538,1.647-5.076,2.47-7.614"/>
      <path class="cls-5" d="M355.475,409.047c.823-2.538,1.647-5.076,2.47-7.614,.081-.25-.147-.541-.334-.662-.264-.172-.674-.222-.978-.186-.702,.082-1.385,.412-1.612,1.113-.823,2.538-1.647,5.076-2.47,7.614-.081,.25,.147,.541,.334,.662,.264,.172,.674,.222,.978,.186,.702-.082,1.385-.412,1.612-1.113h0Z"/>
    </g>
    <g>
      <path class="cls-2" d="M153.79,407.943c.385-2.798,.467-5.638,.246-8.453"/>
      <path class="cls-5" d="M155.247,407.79c.39-2.881,.46-5.791,.239-8.689-.019-.249-.394-.423-.582-.476-.332-.093-.764-.066-1.09,.03-.573,.17-1.278,.535-1.226,1.222,.209,2.741,.115,5.494-.254,8.218-.173,1.28,2.762,.809,2.913-.306h0Z"/>
    </g>
    <g>
      <path class="cls-2" d="M159.636,407.918l-.514-6.743"/>
      <path class="cls-5" d="M161.085,407.53l-.514-6.743c-.018-.241-.395-.393-.572-.438-.333-.084-.761-.049-1.086,.046-.54,.159-1.29,.503-1.24,1.169l.514,6.743c.018,.241,.395,.393,.572,.438,.333,.084,.761,.049,1.086-.046,.54-.159,1.29-.503,1.24-1.169h0Z"/>
    </g>
    <g>
      <path class="cls-2" d="M287.553,393.929c-3.11,1.398-4.716,4.988-4.916,8.392s.714,6.76,1.27,10.124c.878,5.315,.863,10.777-.045,16.087-.232,1.359-.579,2.809-1.619,3.715-.783,.683-1.835,.944-2.788,1.358-3.634,1.581-5.88,5.848-5.126,9.739s4.431,7.01,8.393,7.12c1.425,.039,2.869-.266,4.265,.021,2.473,.508,4.21,2.721,6.488,3.809,3.912,1.868,9.221-.438,10.527-4.571,1.552,1.481,3.168,3.002,5.191,3.716s4.577,.394,5.862-1.324c1.293-1.728,1.065-4.439,2.783-5.745,.711-.541,1.644-.728,2.348-1.278,1.704-1.332,1.321-3.966,.771-6.058-2.297-8.746-4.594-17.492-6.891-26.238-.973-3.704-1.986-7.497-4.199-10.622-2.568-3.627-6.504-6.012-10.394-8.161-2.191-1.21-3.547-1.31-6.038-1.558s-3.797,.633-5.882,1.474"/>
      <path class="cls-5" d="M286.934,393.161c-2.688,1.294-4.434,3.655-5.27,6.485-1.029,3.484-.331,7.183,.333,10.665,.756,3.969,1.212,7.929,1.062,11.977-.073,1.979-.266,3.954-.581,5.909-.282,1.75-.577,3.398-2.366,4.134-2.813,1.158-5.161,2.768-6.469,5.627-1.22,2.667-1.241,5.691,.167,8.287,1.362,2.511,3.883,4.377,6.676,4.973,1.774,.378,3.5-.007,5.277,.149,1.685,.149,3.029,1.318,4.335,2.284,2.699,1.995,5.679,2.836,8.972,1.839,2.955-.895,5.383-2.955,6.394-5.901l-2.794,.749c2.205,2.099,4.641,4.288,7.848,4.427,2.795,.121,5.518-1.127,6.591-3.817,.454-1.139,.588-2.49,1.278-3.522,.433-.649,1.106-.826,1.77-1.164,.734-.375,1.386-.839,1.875-1.509,1.78-2.441,.428-5.905-.251-8.491-2.005-7.633-4.01-15.266-6.014-22.899-.861-3.279-1.681-6.603-3.255-9.628-1.507-2.896-3.751-5.197-6.379-7.105-2.699-1.961-5.887-4.128-9.206-4.768-1.617-.312-3.372-.56-5.015-.373-1.771,.202-3.351,1.002-4.976,1.673-.506,.209-1.111,.826-.714,1.383,.41,.576,1.427,.371,1.952,.154,1.112-.459,2.229-1.09,3.435-1.26,1.326-.187,2.969,.076,4.269,.388,2.494,.598,4.896,2.275,7.001,3.691,2.391,1.608,4.578,3.525,6.13,5.978,1.589,2.511,2.457,5.401,3.227,8.247,1.739,6.432,3.389,12.889,5.082,19.333,.816,3.108,1.802,6.221,2.433,9.373,.222,1.106,.43,2.48-.119,3.527-.577,1.101-2.201,1.3-3.103,2.128-.921,.845-1.34,1.95-1.701,3.117s-.63,2.643-1.802,3.281c-2.728,1.486-5.929-1.716-7.689-3.392-.819-.78-2.443-.276-2.794,.749-.732,2.135-2.718,3.736-4.944,4.055-2.773,.398-4.664-1.543-6.785-2.971-1.145-.771-2.388-1.347-3.77-1.507-1.61-.187-3.24,.242-4.839-.044-2.573-.459-4.87-2.401-5.912-4.774-1.074-2.445-.728-5.254,.676-7.491,.682-1.087,1.641-2.023,2.789-2.604,1.251-.633,2.622-.927,3.682-1.908,2.141-1.982,2.199-5.767,2.418-8.457,.277-3.398,.193-6.833-.228-10.216-.485-3.897-1.777-7.792-1.53-11.751,.179-2.864,1.319-6.163,4.074-7.49,.49-.236,1.124-.808,.714-1.383-.396-.556-1.444-.398-1.952-.154h0Z"/>
    </g>
    <g>
      <path class="cls-2" d="M204.866,398.71c-3.11,1.398-4.716,4.988-4.916,8.392s.714,6.76,1.27,10.124c.878,5.315,.863,10.777-.045,16.087-.232,1.359-.579,2.809-1.619,3.715-.783,.683-1.835,.944-2.788,1.358-3.634,1.581-5.88,5.848-5.126,9.739s4.431,7.01,8.393,7.12c1.425,.039,2.869-.266,4.265,.021,2.473,.508,4.21,2.721,6.488,3.809,3.912,1.868,9.221-.438,10.527-4.571,1.552,1.481,3.168,3.002,5.191,3.716s4.577,.394,5.862-1.324c1.293-1.728,1.065-4.439,2.783-5.745,.711-.541,1.644-.728,2.348-1.278,1.704-1.332,1.321-3.966,.771-6.058-2.297-8.746-4.594-17.492-6.891-26.238-.973-3.704-1.986-7.497-4.199-10.622-2.568-3.627-6.504-6.012-10.394-8.161-2.191-1.21-3.547-1.31-6.038-1.558s-3.797,.633-5.882,1.474"/>
      <path class="cls-5" d="M204.247,397.942c-2.688,1.294-4.434,3.655-5.27,6.485-1.029,3.484-.331,7.183,.333,10.665,.756,3.969,1.212,7.929,1.062,11.977-.073,1.979-.266,3.954-.581,5.909-.282,1.75-.577,3.398-2.366,4.134-2.813,1.158-5.161,2.768-6.469,5.627-1.22,2.667-1.241,5.691,.167,8.287,1.362,2.511,3.883,4.377,6.676,4.973,1.774,.378,3.5-.007,5.277,.149,1.685,.149,3.029,1.318,4.335,2.284,2.699,1.995,5.679,2.836,8.972,1.839,2.955-.895,5.383-2.955,6.394-5.901l-2.794,.749c2.205,2.099,4.641,4.288,7.848,4.427,2.795,.121,5.518-1.127,6.591-3.817,.454-1.139,.588-2.49,1.278-3.522,.433-.649,1.106-.826,1.77-1.164,.734-.375,1.386-.839,1.875-1.509,1.78-2.441,.428-5.905-.251-8.491-2.005-7.633-4.01-15.266-6.014-22.899-.861-3.279-1.681-6.603-3.255-9.628-1.507-2.896-3.751-5.197-6.379-7.105-2.699-1.961-5.887-4.128-9.206-4.768-1.617-.312-3.372-.56-5.015-.373-1.771,.202-3.351,1.002-4.976,1.673-.506,.209-1.111,.826-.714,1.383,.41,.576,1.427,.371,1.952,.154,1.112-.459,2.229-1.09,3.435-1.26,1.326-.187,2.969,.076,4.269,.388,2.494,.598,4.896,2.275,7.001,3.691,2.391,1.608,4.578,3.525,6.13,5.978,1.589,2.511,2.457,5.401,3.227,8.247,1.739,6.432,3.389,12.889,5.082,19.333,.816,3.108,1.802,6.221,2.433,9.373,.222,1.106,.43,2.48-.119,3.527-.577,1.101-2.201,1.3-3.103,2.128-.921,.845-1.34,1.95-1.701,3.117s-.63,2.643-1.802,3.281c-2.728,1.486-5.929-1.716-7.689-3.392-.819-.78-2.443-.276-2.794,.749-.732,2.135-2.718,3.736-4.944,4.055-2.773,.398-4.664-1.543-6.785-2.971-1.145-.771-2.388-1.347-3.77-1.507-1.61-.187-3.24,.242-4.839-.044-2.573-.459-4.87-2.401-5.912-4.774-1.074-2.445-.728-5.254,.676-7.491,.682-1.087,1.641-2.023,2.789-2.604,1.251-.633,2.622-.927,3.682-1.908,2.141-1.982,2.199-5.767,2.418-8.457,.277-3.398,.193-6.833-.228-10.216-.485-3.897-1.777-7.792-1.53-11.751,.179-2.864,1.319-6.163,4.074-7.49,.49-.236,1.124-.808,.714-1.383-.396-.556-1.444-.398-1.952-.154h0Z"/>
    </g>
  </g>
  <g id="Layer_3" data-name="Layer 3">
    <g>
      <path class="cls-6" d="M249.841,235.637c-6.117-22.874-25.096-40.421-46.405-45.395s-44.229,1.905-61.606,16.284c-8.009,6.627-15.055,14.934-19.25,24.915-7.376,17.551-5.191,38.135-.392,56.724,14.743,57.106,73.703,115.872,123.434,139.588,56.109-18.141,127.923-82.904,144.048-140.01,5.249-18.59,7.64-39.173-.428-56.724-4.588-9.98-12.295-18.287-21.055-24.915-19.006-14.379-44.075-21.257-67.382-16.284-23.307,4.974-44.066,22.521-50.756,45.395"/>
      <path class="cls-1" d="M251.29,235.248c-3.522-12.998-11.23-24.683-21.654-33.19-10.488-8.56-23.361-13.637-36.908-14.246-14.836-.667-29.637,3.717-42.258,11.406-12.791,7.792-24.075,19.187-29.696,33.243-5.993,14.987-5.162,31.807-2.045,47.353,2.765,13.795,7.544,26.985,13.948,39.502,6.585,12.871,14.631,24.972,23.588,36.309,9.182,11.623,19.343,22.476,30.247,32.498,10.474,9.626,21.656,18.52,33.515,26.383,5.473,3.629,11.097,7.036,16.882,10.144,1.392,.748,2.792,1.478,4.203,2.189,1.137,.574,2.682,1.709,3.965,1.8,1.309,.093,3.026-.837,4.254-1.268,1.372-.481,2.736-.982,4.094-1.503,11.687-4.485,22.846-10.334,33.491-16.899,11.732-7.235,22.878-15.421,33.428-24.287,10.764-9.046,20.915-18.838,30.266-29.34,8.979-10.085,17.268-20.835,24.36-32.335,6.36-10.315,11.817-21.3,15.409-32.898,4.567-14.748,7.273-30.931,4.442-46.28-2.85-15.454-12.173-28.139-24.418-37.645-11.814-9.171-25.919-15.465-40.71-17.811-14.288-2.267-29.097-.84-42.42,4.931-12.163,5.268-22.956,13.879-30.459,24.837-3.614,5.279-6.398,11.1-8.216,17.234-.331,1.119,2.595,.734,2.908-.323,3.872-13.07,12.375-24.469,23.298-32.535,11.468-8.469,25.291-13.154,39.548-13.407,15.393-.273,30.684,4.125,43.931,11.882s25.312,19.082,30.864,33.63c5.892,15.439,4.286,32.577,.397,48.29-3.07,12.4-8.063,24.083-14.424,35.146-6.764,11.762-14.838,22.762-23.668,33.05-9.277,10.809-19.413,20.882-30.183,30.199-10.658,9.22-21.964,17.707-33.881,25.234-10.801,6.823-22.132,12.886-34.035,17.559-2.619,1.028-5.265,1.982-7.941,2.851l1.357,.061c-23-10.999-43.765-26.723-62.107-44.322-19.431-18.645-36.781-40.109-49.085-64.152-5.894-11.519-10.441-23.619-13.26-36.256-3.234-14.5-4.657-29.975-.564-44.457,3.918-13.863,13.353-25.395,24.854-33.807,11.168-8.169,24.481-13.489,38.344-14.376,12.832-.82,25.518,2.511,36.319,9.464,10.538,6.783,19.087,16.743,24.092,28.24,1.225,2.814,2.231,5.716,3.034,8.678,.298,1.1,3.197,.328,2.898-.776h0Z"/>
    </g>
  </g>
  <g id="Layer_2" data-name="Layer 2">
    <g>
      <path class="cls-2" d="M218.947,280.786c-8.277-6.403-17.451-11.645-27.17-15.523-1.218-.486-2.688-.927-3.763-.176-.632,.442-.958,1.198-1.193,1.933-1.381,4.299-.718,8.958,.044,13.408,1.663,9.713,3.737,19.356,6.215,28.894"/>
      <path class="cls-5" d="M220.295,280.228c-4.324-3.331-8.874-6.366-13.624-9.056-2.342-1.326-4.731-2.567-7.161-3.722s-4.947-2.412-7.526-3.206c-12.163-3.748-5.865,20.76-4.848,25.864,1.31,6.576,2.813,13.111,4.494,19.601,.248,.958,3.15,.198,2.898-.776-2.619-10.11-4.908-20.36-6.51-30.684-.394-2.538-.696-5.124-.476-7.693,.095-1.113,.281-2.223,.593-3.297,.127-.436,.294-1.363,.685-1.626,.219-.147,.169-.125,.522-.097,.365,.028,.754,.211,1.091,.338,4.523,1.708,8.917,3.879,13.14,6.226,4.902,2.725,9.583,5.82,14.026,9.243,.783,.604,3.446-.537,2.696-1.115h0Z"/>
    </g>
    <g id="Layer_7" data-name="Layer 7">
      <path class="cls-3" d="M187.53,284.804c.565,0,1.629-.202,1.918-.77s-.247-.772-.764-.772c-.565,0-1.629,.202-1.918,.77s.247,.772,.764,.772h0Z"/>
      <g>
        <path class="cls-2" d="M189.622,280.472c5.032,2.781,8.399,7.755,11.573,12.548,.261,.394,.533,.833,.478,1.302-.043,.359-.271,.664-.491,.951-2.395,3.115-4.79,6.23-7.184,9.344-1.745-4.165-2.155-8.745-3.092-13.163-.754-3.553-1.858-7.031-3.292-10.368,.467-.304,1.046,.152,1.412,.572,2.726,3.119,5.453,6.239,8.179,9.358,.489,.559,.99,1.139,1.224,1.844,.399,1.199-.042,2.498-.48,3.683,.249-.459,.498-.918,.747-1.376,.012,.456-.611,.7-1.024,.506s-.639-.637-.828-1.051c-.897-1.963-1.639-3.997-2.216-6.076,1.288,1.904,2.239,4.035,2.797,6.264-1.916-2.447-3.708-4.991-5.367-7.619,.88,2.976,1.916,5.907,3.101,8.776-.397-2.141-1.742-4.227-1.378-6.44,.244-.036,.497,.166,.516,.413"/>
        <path class="cls-5" d="M188.504,281.305c4.126,2.338,7.073,6.045,9.717,9.897,.603,.879,1.397,1.791,1.84,2.759,.417,.912-1.544,2.783-2.101,3.508-1.724,2.243-3.448,4.485-5.173,6.728l2.66,.033c-1.522-3.735-2.046-7.725-2.793-11.661-.774-4.081-1.967-8.046-3.591-11.87l-1.185,1.373c-.519-.149-.631-.12-.334,.086,.118,.092,.223,.197,.313,.317,.274,.287,.525,.601,.786,.9,.524,.6,1.049,1.2,1.573,1.8,1.049,1.2,2.097,2.399,3.146,3.599,.96,1.099,1.958,2.175,2.88,3.305,1.139,1.396,.906,2.7,.324,4.303-.587,1.618,2.194,1.381,2.768,.323,.249-.459,.498-.918,.747-1.376l-2.851-.049,1.273-.686-.209-.361c-.055-.259-.245-.545-.351-.789-.257-.594-.499-1.195-.727-1.801-.431-1.145-.805-2.309-1.139-3.486l-2.776,1.024c1.232,1.866,2.109,3.854,2.675,6.017l2.776-1.024c-1.911-2.454-3.701-4.994-5.367-7.619-.614-.968-3.141-.197-2.776,1.024,.889,2.976,1.923,5.902,3.101,8.776,.515,1.256,3.187,.596,2.898-.776-.433-2.058-1.62-4.011-1.359-6.165l-1.971,1.159-.43-.245c.504,1.293,3.386,.475,2.898-.776-.276-.708-.721-.958-1.461-1.071-.711-.108-1.871,.33-1.971,1.159-.288,2.384,.919,4.448,1.396,6.716l2.898-.776c-1.178-2.874-2.212-5.799-3.101-8.776l-2.776,1.024c1.667,2.626,3.456,5.166,5.367,7.619,.688,.884,3.111,.255,2.776-1.024-.609-2.326-1.595-4.507-2.919-6.512-.631-.956-3.125-.208-2.776,1.024,.628,2.219,1.309,4.833,2.579,6.784,1.086,1.669,3.911,1.299,4.405-.663,.161-.639-.696-.924-1.15-.937-.659-.018-1.377,.29-1.701,.888-.249,.459-.498,.918-.747,1.376l2.768,.323c.622-1.714,1.118-3.474,.11-5.148-.971-1.612-2.507-3.003-3.743-4.416-1.363-1.56-2.726-3.119-4.09-4.679-1.146-1.311-2.276-3.026-4.262-2.36-.472,.158-1.475,.691-1.185,1.373,1.624,3.823,2.817,7.789,3.591,11.87,.747,3.936,1.271,7.926,2.793,11.661,.41,1.007,2.086,.78,2.66,.033,1.916-2.492,3.832-4.984,5.747-7.476,.712-.926,2.043-2.129,2.184-3.354,.138-1.195-.986-2.386-1.6-3.299-2.918-4.341-6.169-8.646-10.801-11.271-.639-.362-1.495-.268-2.077,.178-.439,.337-.804,1.121-.159,1.486h0Z"/>
      </g>
      <g>
        <path class="cls-2" d="M188.134,278.383c2.611,2.783,5.121,5.661,7.524,8.625-3.872-3.365-6.954-7.633-8.93-12.366,3.878,5.297,7.756,10.595,11.634,15.892-4.953-4.326-8.408-10.088-11.516-15.884,4.808,5.018,9.191,10.442,13.089,16.195,.262,.387,.529,.795,.577,1.26,.053,.517-.174,1.017-.396,1.488-.947,2.007-1.893,4.015-2.84,6.022-.224-1.002-.234-2.051-.028-3.057-.322,1.657-1.592,3.095-3.196,3.62"/>
        <path class="cls-5" d="M186.767,278.871c2.578,2.756,5.061,5.597,7.442,8.526l2.816-.876c-3.845-3.385-6.845-7.553-8.848-12.267l-2.898,.776c3.878,5.297,7.756,10.595,11.634,15.892l2.816-.876c-4.934-4.369-8.343-10.035-11.434-15.784l-2.816,.876c3.544,3.712,6.865,7.629,9.924,11.751,.736,.992,1.458,1.995,2.164,3.009,.578,.829,1.567,1.838,1.459,2.913-.116,1.149-.965,2.374-1.454,3.409-.575,1.219-1.149,2.438-1.724,3.656l2.876-.649c-.19-.987-.222-1.933-.049-2.93,.109-.628-2.695-.155-2.855,.522-.289,1.219-1.017,2.586-2.264,3.051-.288,.108-1.137,.385-.872,.795,.231,.357,1.616-.088,1.862-.18,1.985-.74,3.621-2.049,4.129-4.189l-2.855,.522c-.187,1.081-.201,2.102,.007,3.184,.127,.662,2.665-.201,2.876-.649,.575-1.219,1.149-2.438,1.724-3.656,.505-1.071,1.315-2.283,1.503-3.469,.167-1.052-.644-1.92-1.202-2.727-.79-1.143-1.6-2.273-2.428-3.389-3.11-4.19-6.486-8.175-10.088-11.949-.408-.428-3.055,.43-2.816,.876,3.131,5.823,6.602,11.559,11.599,15.983,.477,.422,3.059-.543,2.816-.876-3.878-5.297-7.756-10.595-11.634-15.892-.409-.559-3.124,.245-2.898,.776,2.034,4.787,5.109,9.03,9.012,12.466,.506,.445,3.041-.598,2.816-.876-2.435-2.995-4.969-5.905-7.606-8.724-.485-.519-3.15,.53-2.734,.975h0Z"/>
      </g>
      <g>
        <path class="cls-2" d="M187.289,278.407c.062,1.34,.32,2.671,.763,3.938-.294-1.772-.719-3.522-1.272-5.231,2.986,8.111,3.72,16.935,6.911,24.968,.353-.57,.706-1.14,1.059-1.709,.418,.535,.55,1.28,.342,1.927"/>
        <path class="cls-5" d="M185.84,278.795c.085,1.353,.336,2.652,.763,3.938,.226,.683,3.023-.051,2.898-.776-.305-1.775-.729-3.515-1.272-5.231l-2.898,.776c2.953,8.142,3.751,16.891,6.911,24.968,.311,.794,2.585-.158,2.88-.634,.353-.57,.706-1.14,1.059-1.709l-2.88,.634c.372,.571,.515,1.107,.36,1.784-.158,.687,2.689,.263,2.863-.492,.177-.772,.116-1.392-.325-2.069-.469-.719-2.527,.065-2.88,.634s-.706,1.14-1.059,1.709l2.88-.634c-3.16-8.077-3.958-16.826-6.911-24.968-.256-.707-3.105,.121-2.898,.776,.544,1.717,.967,3.457,1.272,5.231l2.898-.776c-.427-1.287-.678-2.586-.763-3.938-.036-.567-2.95-.062-2.898,.776h0Z"/>
      </g>
      <path class="cls-5" d="M193.23,291.053c.605,1.048,1.004,2.172,1.196,3.367l2.798-.943c-2.24-2.521-2.794-5.993-4.202-8.966l-2.898,.776c1.071,2.178,1.903,4.457,2.489,6.812l2.898-.776c-1.004-3.232-2.249-6.38-3.726-9.424-.459-.946-3.282-.015-2.898,.776,1.478,3.044,2.723,6.193,3.726,9.424,.292,.941,3.136,.181,2.898-.776-.585-2.355-1.418-4.634-2.489-6.812-.271-.551-1.148-.419-1.631-.29-.297,.08-1.518,.538-1.267,1.066,1.469,3.1,2.064,6.666,4.403,9.298,.55,.619,2.952,.021,2.798-.943-.191-1.195-.591-2.319-1.196-3.367-.535-.926-3.313,.057-2.898,.776h0Z"/>
      <path class="cls-5" d="M186.237,283.718c.121,.296,.292,.565,.487,.818,.167,.218,.364,.411,.584,.575,.093,.064,.196,.1,.307,.108,.145,.033,.293,.041,.443,.026,.188-.008,.373-.036,.555-.082,.197-.036,.389-.091,.575-.164l.332-.145c.175-.083,.331-.192,.47-.327l.113-.164c.044-.111,.019-.204-.074-.278-.248-.185-.465-.407-.645-.658l.089,.125c-.135-.19-.248-.395-.337-.611-.032-.088-.092-.144-.179-.168-.105-.06-.22-.089-.345-.088-.166-.014-.331-.009-.495,.017-.193,.015-.383,.05-.57,.105l-.38,.122c-.214,.078-.415,.18-.603,.306l-.198,.166c-.098,.085-.14,.191-.127,.317h0Z"/>
      <path class="cls-5" d="M192.161,289.756c.566,1.178,1.044,2.392,1.412,3.646,.172,.584,.321,1.175,.447,1.771,.085,.402,.447,1.398,.225,1.756l.431-.472,1.27-.241-.097-.09c-.067-.15-.237-.317-.331-.458-.183-.272-.358-.551-.524-.834-.372-.635-.69-1.295-.961-1.978-.532-1.339-.872-2.739-1.041-4.169-.147-1.241-3.053-.545-2.898,.776,.536,4.575,1.072,9.15,1.608,13.725,.073,.619,1.081,.653,1.501,.575,.535-.099,1.35-.451,1.412-1.091,.134-1.391,.27-2.792,.624-4.147,.32-1.222,.931-2.262,1.549-3.352,.598-1.055,1.085-2.172,1.051-3.406-.039-1.412-.63-2.675-1.25-3.916l-2.78,1.009c1.052,1.048,2.085,2.144,2.989,3.325,.366,.479,.322,.904-.071,1.36-.497,.577-.955,.808-1.023,1.608l.263-.509-.096,.098,2.326-.422-.069-.038,.323,.415-.008-.086-.824,1.18,.056-.021c.53-.199,1.092-.859,.706-1.413-.418-.599-1.414-.374-1.956-.171l-.056,.021c-.499,.187-.873,.649-.824,1.18,.023,.248,.19,.423,.401,.54,.738,.409,1.753,.164,2.326-.422,.138-.141,.253-.288,.316-.477,.015-.047,.02-.316,.019-.314l-.431,.472c1.068-.926,2.449-2.349,1.56-3.865-.379-.646-.964-1.23-1.458-1.791-.58-.659-1.184-1.294-1.806-1.913-.465-.463-1.183-.459-1.768-.239-.387,.146-1.293,.685-1.012,1.248,.56,1.121,1.215,2.363,1.226,3.649,.01,1.212-.657,2.237-1.242,3.247-1.337,2.308-1.735,4.783-1.988,7.404l2.912-.516c-.536-4.575-1.072-9.15-1.608-13.725l-2.898,.776c.203,1.716,.656,3.391,1.38,4.962,.634,1.376,1.52,3.585,3.253,3.766,.958,.1,2.199-.399,2.458-1.414,.194-.762-.13-1.759-.293-2.507-.398-1.831-1.02-3.601-1.831-5.289-.306-.637-1.069-.708-1.698-.54-.423,.113-1.502,.687-1.2,1.316h0Z"/>
      <path class="cls-5" d="M196.065,296.526c.023,.046,.031,.093,.028,.144l.017-.145c-.007,.051-.024,.096-.053,.139l.115-.157c-.014,.018-.028,.033-.045,.048l.2-.16c-.008,.007-.017,.013-.027,.019l.273-.155c-.009,.006-.019,.011-.029,.015l.333-.142-.016,.006,1.961-.017c-.13-.434-.172-.89-.122-1.341l-.017,.145,.003-.025c.043-.082,.034-.149-.027-.203-.045-.081-.119-.127-.221-.137-.135-.034-.272-.047-.41-.038-.173-.005-.345,.01-.516,.044-.377,.069-.763,.17-1.103,.349l-.273,.155c-.133,.078-.238,.184-.315,.317-.032,.275-.052,.545-.029,.821,.02,.234,.064,.465,.132,.69,.052,.11,.14,.175,.264,.195,.135,.034,.272,.047,.41,.038,.436-.002,.879-.094,1.287-.25,.314-.121,.628-.266,.877-.498,.075-.07,.141-.156,.185-.248,.036-.075,.045-.18,.045-.257,0-.046-.008-.087-.029-.128-.033-.084-.091-.136-.176-.156-.105-.056-.219-.082-.342-.078-.166-.011-.33-.003-.494,.023-.193,.017-.383,.053-.57,.107l-.38,.121c-.213,.076-.415,.175-.605,.298l-.2,.16c-.098,.079-.141,.18-.131,.301h0Z"/>
      <path class="cls-5" d="M186.701,275.487c1.621,0,2.253-2.032,.281-2.032-1.621,0-2.253,2.032-.281,2.032h0Z"/>
    </g>
    <g>
      <path class="cls-2" d="M290.643,282.473c8.277-6.403,17.451-11.645,27.17-15.523,1.218-.486,2.688-.927,3.763-.176,.632,.442,.958,1.198,1.193,1.933,1.381,4.299,.718,8.958-.044,13.408-1.663,9.713-3.737,19.356-6.215,28.894"/>
      <path class="cls-5" d="M291.798,282.686c7.755-5.975,16.28-10.932,25.331-14.668,.988-.408,2.436-1.338,3.39-.44,.847,.797,1.088,2.387,1.29,3.475,.455,2.457,.349,4.965,.049,7.434-.62,5.115-1.695,10.206-2.732,15.25-1.205,5.855-2.563,11.677-4.062,17.464-.258,.997,2.646,.571,2.892-.382,1.479-5.708,2.821-11.451,4.013-17.227,1.159-5.616,2.478-11.347,2.945-17.071,.211-2.592,.166-5.257-.565-7.77-.291-1-.687-2.082-1.616-2.659-1-.621-2.254-.581-3.369-.358-2.503,.5-4.961,1.806-7.268,2.863-2.489,1.14-4.94,2.366-7.343,3.677-5.347,2.915-10.443,6.272-15.266,9.988-.5,.386-.274,.841,.261,.975,.672,.168,1.521-.142,2.049-.549h0Z"/>
    </g>
    <g>
      <path class="cls-2" d="M226.216,394.062c5.696,6.578,19.751,7.838,25.734,2.194"/>
      <path class="cls-5" d="M224.868,394.62c3.438,3.876,8.825,5.572,13.854,5.941,4.952,.363,10.614-.63,14.384-4.091,.451-.414,.313-.834-.262-.978-.626-.157-1.575,.114-2.049,.549-3.057,2.806-7.589,3.312-11.56,2.874-4.305-.474-8.74-2.108-11.67-5.412-.64-.722-3.408,.313-2.696,1.116h0Z"/>
    </g>
    <g>
      <path class="cls-2" d="M228.592,397.232c-9.255-.71-15.648-9.254-20.757-17.004-7.015-10.641-14.146-21.538-17.302-33.886-3.157-12.355-2.047-25.758,3.1-37.424s14.298-21.523,25.551-27.52c19.367-10.321,43.177-8.709,64.009-1.804,3.829,1.269,7.622,2.714,11.107,4.746,3.265,1.904,6.226,4.305,8.898,6.978,12.234,12.24,18.073,30.364,15.987,47.544s-11.844,33.146-25.761,43.432c-4.937,3.648-10.342,6.605-15.728,9.55-4.674,2.556-9.422,5.14-14.609,6.352s-10.962,.903-15.411-2.027"/>
      <path class="cls-5" d="M229.502,396.53c-5.629-.497-10.173-4.003-13.816-8.098-3.948-4.439-7.104-9.58-10.303-14.565-7.092-11.052-13.5-22.849-14.861-36.128-1.296-12.643,1.656-25.676,8.495-36.411,6.364-9.989,15.763-17.915,26.801-22.256,11.72-4.609,24.666-5.146,37.029-3.393,6.238,.884,12.382,2.354,18.375,4.293,6.388,2.068,12.413,4.696,17.578,9.071,9.034,7.652,15.138,18.402,17.807,29.881s1.772,23.481-2.445,34.475c-4.159,10.844-11.331,20.522-20.478,27.677-5.341,4.179-11.324,7.419-17.259,10.66-5.716,3.121-11.777,6.44-18.471,6.408-3.144-.015-6.263-.812-8.923-2.511-.541-.346-1.336-.17-1.895,.055-.193,.078-1.331,.684-.813,1.015,12.144,7.758,26.791-1.381,37.486-7.432,5.858-3.314,11.519-6.963,16.455-11.568,4.449-4.15,8.339-8.874,11.509-14.07,6.332-10.377,9.748-22.4,9.223-34.584-.521-12.096-4.786-24.035-12.279-33.569-4.036-5.136-9.008-9.609-14.815-12.647-6.015-3.147-12.758-5.098-19.338-6.667-12.749-3.041-26.183-3.942-39.077-1.244-12.36,2.586-23.754,8.63-32.434,17.854-8.821,9.375-14.326,21.546-15.485,34.371-.606,6.705-.086,13.499,1.629,20.013,1.771,6.727,4.745,13.07,8.176,19.098,3.307,5.811,6.969,11.467,10.767,16.969,3.259,4.722,6.986,9.456,12.049,12.339,2.313,1.318,4.838,2.134,7.494,2.368,.659,.058,1.541-.086,2.049-.549,.391-.357,.413-.799-.229-.855h0Z"/>
    </g>
    <path class="cls-7" d="M196.216,334.213c-4.506,1.153-7.872,6.084-6.306,10.679,1.804,5.292,7.449,7.68,12.594,8.25,3.148,.349,6.406,.217,9.552-.087,2.705-.262,6.039-.52,8.014-2.638,4.063-4.355-.237-9.985-4.246-12.354-5.459-3.227-12.142-3.178-18.25-3.933-1.243-.154-3.026,1.587-1.078,1.828,4.47,.552,9.06,.659,13.389,2.011,3.817,1.192,9.016,4.309,8.843,8.932-.034,.905-.266,1.856-.798,2.602-.742,1.041-1.943,1.252-3.132,1.442-2.6,.415-5.264,.568-7.895,.548-4.623-.035-9.586-.939-12.632-4.758-1.437-1.801-2.215-4.067-1.623-6.346,.511-1.969,1.966-3.99,4.012-4.513,.483-.124,1.398-.58,1.226-1.22-.173-.647-1.207-.562-1.672-.443h0Z"/>
    <path class="cls-7" d="M269.364,353.89c-2.362-.332-3.951-2.8-4.005-5.065-.063-2.672,1.597-5.082,3.724-6.551,2.259-1.561,5.096-2.265,7.778-2.662,2.784-.412,5.602-.465,8.399-.151s5.554,.995,8.186,2.018c2.134,.829,5.325,2.05,5.352,4.799,.048,4.859-5.69,7.33-9.615,8.195-6.37,1.404-13.252,1.562-19.486-.514-1.191-.397-3.408,1.323-1.688,1.895,6.868,2.286,14.321,2.052,21.34,.596,5.019-1.042,11.81-4.12,12.357-10.013,.29-3.127-2.216-4.918-4.748-6.082-3.165-1.455-6.568-2.396-10.02-2.851s-7.005-.401-10.449,.168c-3.322,.549-6.712,1.483-9.483,3.47-2.709,1.943-4.832,5.129-4.547,8.577,.264,3.196,2.731,5.762,5.883,6.206,1.381,.194,2.969-1.762,1.022-2.036h0Z"/>
    <path class="cls-7" d="M196.707,337.586c-.521,4.949,2.053,10.071,6.493,12.401l2.737-.962c-2.109-1.064-3.351-3.092-4.284-5.185-.951-2.134-2.328-5.006-1.081-7.279,.109-.199,.469-.486,.515-.679,.097-.402-.374,.26-.434,.019,.003,.012,.302,.051,.326,.06,.587,.226,1.098,.456,1.601,.844,1.043,.804,1.786,1.872,2.451,2.994,.692,1.165,1.307,2.397,1.77,3.671,.223,.614,.413,1.274,.385,1.935-.014,.335-.088,.654-.234,.955-.05,.103-.124,.197-.169,.301l-.167,.211,1.044-.253c0,.01-.857-.511-.944-.586-.276-.237-.527-.507-.77-.775-.508-.56-.968-1.166-1.385-1.796-.811-1.228-1.434-2.558-1.894-3.955l-2.817,.869c2.355,1.857,3.661,4.727,3.689,7.71l2.817-.869c-1.256-1.302-2.222-2.854-2.852-4.549-.3-.808-.524-1.645-.664-2.497-.072-.439-.012-.9-.076-1.324l.079-.201c-1.522,.083-1.975,.234-1.358,.452,.169,.113,.371,.182,.543,.301,2.656,1.835,3.829,5.547,3.145,8.629l2.794-.749c-1.915-1.44-3.49-3.26-4.631-5.369-.54-.999-1.047-2.09-1.325-3.196-.109-.431-.162-.892-.117-1.336,.022-.217,.126-.414,.156-.62,.01-.067,.131-.169,.125-.229l-1.374,.45c.117,.059,.227,.131,.328,.214,.956,.714,1.717,1.844,2.353,2.838,.646,1.01,1.184,2.088,1.608,3.21,.426,1.128,.735,2.299,.918,3.491,.093,.607,.116,1.158,.08,1.758l-.06,.211c1.291-.111,1.674-.217,1.149-.316-.105-.049-.243-.066-.354-.11-.243-.095-.467-.234-.684-.378-1.909-1.264-3.405-3.106-4.389-5.163-.49-1.025-.854-2.108-1.079-3.222-.112-.558-.191-1.124-.23-1.692-.018-.263-.046-.542-.012-.805,.023-.179,.146-.355,.172-.516,.24-.329,.001-.295-.718,.1-.865,.11-1.061,.199-.586,.267,1.001,.586,1.755,1.234,2.539,2.112,.831,.929,1.57,1.944,2.218,3.008,1.183,1.944,2.277,4.263,2.614,6.535,.075,.508,.089,1.068-.06,1.563-.06,.2-.194,.367-.259,.557l-.049,.052c-.236,.232-.001,.173,.703-.177,1.374-.418,.773-.098,.45-.342-.814-.613-1.562-1.272-2.016-2.221-.311-.649-.448-1.423-.624-2.115-.121-.478-.415-1.145-.381-1.643l-2.817,.869c1.532,.732,2.756,1.939,3.473,3.485,.158,.342,.327,.71,.384,1.085,.027,.097,.033,.196,.016,.296-.079,.587,.359,.527,1.316-.182-.146-.062-.34-.06-.494-.105-.889-.26-1.655-.868-2.191-1.61l-.625,.538c-1.445,.677-1.792,.03-1.069,.442,.179,.102,.339,.239,.496,.37,.336,.281,.634,.603,.974,.879,.805,.653,1.65,.655,2.64,.39,.608-.163,1.264-.402,1.689-.886,.473-.539,.6-1.393,.813-2.06,.504-1.581,1.004-3.162,1.512-4.742,.201-.624,.413-1.242,.735-1.816,.133-.236,.277-.469,.454-.675,.068-.09,.145-.171,.232-.244,.436-.337,.088-.267-1.041,.208,.181,.143,.44,.167,.626,.348,.194,.187,.325,.43,.429,.676,.216,.51,.293,1.079,.3,1.63,.037,2.788-1.492,5.734-3.186,7.856l2.875-.656c-.153-2.813-.237-6.955,2.43-8.74l-2.549,.38c-.008,2.81-1.143,5.547-3.236,7.443l2.754-.521c-1.179-3.273-.306-7.191,2.38-9.47l-2.754,.521c.14,1.185,.147,2.477-.222,3.626-.154,.479-.398,.87-.681,1.279l-.198,.198c1.148-.009,1.503-.133,1.067-.374-.136-.2-.355-.324-.473-.565-.885-1.808,.232-4.33,1.576-5.59l-2.674,.614c.565,.387,.854,1.112,.74,1.794-.032,.192-.146,.35-.194,.53-.048,.097-.113,.182-.193,.256l.964-.306c0-.008-.441-.209-.477-.236-.165-.121-.293-.27-.39-.449-.345-.632-.189-1.399,.192-1.975,.103-.156,.231-.28,.355-.417,.044-.044,.092-.083,.144-.117,.29-.196,.057-.127-.698,.208,.024,.05,1.102,.383,1.274,.49,3.122,1.945,3.819,6.595,2.607,9.805l2.875-.656c-.392-1.604-.48-3.224-.264-4.861l-2.898,.776c.962,2.372,.568,5.261-1.224,7.147l2.731-.401c.141-.634,.282-1.268,.422-1.902,.139-.624-1.691-.084-1.914-.015-1.703,.527-3.479,.768-5.258,.798-.297,.005-2.816,.494-2.317,1.039,.684,.746,1.545,1.027,2.538,1.051l1.23-1.047c-.846,.181-1.681,.065-2.493-.22l-2.566,1.018c.695,.076,1.391,.153,2.086,.229l1.09-.938c.187-.047-.225-.029-.29-.037-.204-.025-.41-.07-.607-.131-.424-.13-.832-.343-1.202-.586-.754-.494-1.353-1.159-1.817-1.928-.955-1.579-1.375-3.467-1.586-5.282-.201-1.725-.162-3.596,.768-5.122,.202-.332,.441-.631,.748-.872,.112-.088,.281-.153,.375-.249,.082-.084-.116,.051-.202,.036,.69,.123,1.214,.25,1.695,.824l2.398-.946c-.582-.007-1.076-.19-1.574-.483l-2.566,1.018c1.122,.162,2.12,.548,3.071,1.162l2.737-.962c-.543-.226-1.086-.452-1.629-.678-.553-.23-1.322,.009-1.857,.198-.192,.068-1.237,.452-.88,.764,.841,.735,1.683,1.47,2.524,2.205l2.737-.962c-1.958-1.678-4.046-3.373-6.729-3.535-2.352-.142-5.29,.684-6.611,2.784-1.125,1.789-.928,4.176-.365,6.117,.729,2.508,2.173,4.844,3.809,6.857l2.817-.869c-2.536-2.156-3.721-5.713-3.078-8.972l-2.875,.656c1.822,5.565,7.501,9.064,13.277,8.375l-.667-.409c-.658,.688-.058,1.42,.76,1.531,1.056,.143,2.619-.34,3.288-1.208,.697-.904,.845-2.343,1.141-3.416,.402-1.46,.804-2.919,1.207-4.379l-2.875,.656c1.219,1.995,1.148,4.538-.228,6.436l2.851-.536c1.16-4.224-1.221-8.921-5.427-10.273-.586-.188-1.491,.14-2.021,.387-.281,.131-.964,.497-.373,.687,3.857,1.239,6.012,5.934,4.969,9.734-.173,.631,2.526-.088,2.851-.536,1.408-1.942,1.527-4.628,.275-6.677-.329-.538-2.721,.098-2.875,.656-.402,1.46-.804,2.919-1.207,4.379-.201,.73-.391,1.463-.603,2.19-.064,.219-.124,.44-.213,.65-.351,.83-.804,.522,.716,.221l.915-.048c-.216-.021-.809-.444-.543-.722,.427-.446-.387-.442-.667-.409-5.169,.617-10.097-3.305-11.656-8.068-.184-.563-2.773,.14-2.875,.656-.686,3.476,.473,7.086,3.192,9.398,.496,.422,3.019-.621,2.817-.869-2.342-2.881-4.76-6.923-4.181-10.81,.121-.811,.42-1.63,.937-2.275,.574-.716,.993-.88,1.886-.739,2.196,.345,3.99,1.945,5.618,3.34,.385,.33,1.454-.055,1.857-.198,.192-.068,1.237-.452,.88-.764-.841-.735-1.683-1.47-2.524-2.205l-2.737,.962c.543,.226,1.086,.452,1.629,.678,.553,.23,1.322-.009,1.857-.198,.148-.052,1.276-.509,.88-.764-1.043-.673-2.187-1.098-3.415-1.275-.609-.088-1.294,.094-1.853,.321-.136,.055-1.089,.475-.712,.697,.751,.443,1.546,.626,2.414,.637,.249,.003,2.706-.578,2.398-.946-1.514-1.805-4.309-1.22-6.179-.318-2.215,1.069-3.076,3.242-3.096,5.605-.022,2.521,.551,5.461,2.074,7.518,1.622,2.191,4.075,2.764,6.637,2.119,.151-.038,1.965-.842,1.09-.938-.695-.076-1.391-.153-2.086-.229-.621-.068-1.28,.088-1.853,.321-.095,.039-1.116,.556-.712,.697,1.531,.536,3.083,.575,4.667,.237,.426-.091,1.289-.234,1.587-.623,.248-.324,.012-.416-.357-.425-.695-.017-1.245-.404-1.698-.898l-2.317,1.039c2.779-.047,5.48-.527,8.133-1.348l-1.914-.015c-.141,.634-.282,1.268-.422,1.902-.155,.697,2.454-.11,2.731-.401,1.936-2.037,2.577-5.031,1.512-7.658-.251-.618-2.817,.166-2.898,.776-.215,1.637-.128,3.257,.264,4.861,.146,.599,2.697-.187,2.875-.656,.782-2.071,.835-4.371,.088-6.462-.685-1.917-2.164-3.978-4.3-4.35-1.886-.328-4.742,.475-5.448,2.468-.269,.76-.19,1.6,.43,2.164,.721,.656,1.814,.603,2.707,.431,1.092-.21,2.524-.7,2.898-1.873,.287-.899-.04-1.858-.814-2.389-.581-.398-2.208,.177-2.674,.614-1.122,1.052-1.844,2.374-2.061,3.903-.185,1.301,.03,3.017,1.618,3.195,1.461,.163,3.223-.551,4.077-1.759,.966-1.367,.993-3.362,.805-4.954-.077-.648-2.503,.309-2.754,.521-2.833,2.404-3.927,6.482-2.667,9.98,.237,.657,2.444-.241,2.754-.521,2.258-2.045,3.514-4.909,3.523-7.953,.002-.559-2.32,.226-2.549,.38-3.147,2.106-3.315,6.089-3.127,9.534,.036,.661,2.631-.351,2.875-.656,1.604-2.009,2.681-4.375,3.126-6.91,.301-1.712-.036-4.12-2.208-4.184-2.534-.074-4.266,1.482-5.034,3.759-.471,1.397-.898,2.811-1.346,4.216-.218,.685-.434,1.371-.655,2.055-.06,.187-.374,.68-.377,.857,.002-.129,1.907-.367,1.797-.499-.044-.052-.213-.099-.264-.14-.612-.48-1.155-1.12-1.826-1.515-.995-.586-2.341-.237-3.316,.22-.066,.031-.764,.346-.625,.538,.725,1.004,1.717,1.71,2.94,1.969,1.155,.244,3.222,.089,4-.941,.712-.941-.332-2.511-.898-3.295-.758-1.05-1.742-1.881-2.911-2.439-.526-.251-2.767,.115-2.817,.869-.042,.626,.337,1.482,.494,2.078,.228,.87,.437,1.639,.955,2.382,.681,.977,1.556,1.923,2.822,1.977,1.184,.05,3.025-.403,3.563-1.603,.522-1.164,.144-2.509-.205-3.657-.472-1.554-1.12-3.054-1.929-4.462-.754-1.314-1.65-2.542-2.661-3.67-.879-.982-1.891-2.16-3.292-2.288-1.318-.12-3.498,.387-3.73,1.93-.217,1.445,.265,3.171,.747,4.524,.949,2.661,2.786,5.236,5.209,6.748,1.316,.822,2.894,.721,4.281,.098,.568-.255,1.073-.607,1.213-1.246,.172-.785-.065-1.739-.216-2.514-.593-3.032-2.001-5.883-4.058-8.187-.581-.651-1.168-1.239-2.084-1.288-.891-.048-1.943,.235-2.7,.707-1.191,.744-1.081,2.259-.695,3.439,1.078,3.298,3.211,6.219,5.978,8.301,.444,.334,2.664-.161,2.794-.749,.446-2.011,.233-4.083-.677-5.941-.777-1.585-2.337-3.679-4.296-3.647-.977,.016-2.66,.356-3.099,1.378-.37,.862,.049,2.147,.279,2.996,.606,2.232,1.785,4.239,3.387,5.9,.392,.406,2.823-.24,2.817-.869-.029-3.075-1.43-5.988-3.849-7.895-.389-.307-3.008,.291-2.817,.869,.548,1.666,1.334,3.237,2.379,4.648,.843,1.138,1.959,2.684,3.488,2.814,1.495,.127,3.578-.538,4.218-2.025,.681-1.584-.248-3.415-.93-4.837-1.272-2.653-3.345-6.265-6.759-6.087-1.551,.081-3.342,.678-4.261,2.005-.946,1.367-.81,3.141-.36,4.656,.94,3.164,2.547,6.963,5.654,8.53,.517,.261,1.353-.019,1.857-.198,.126-.044,1.292-.548,.88-.764-4.385-2.3-6.846-7.341-6.333-12.216,.031-.291-2.811-.051-2.898,.776h0Z"/>
    <path class="cls-7" d="M212.149,344.374c1.607,0,2.265-1.995,.291-1.995-1.607,0-2.265,1.995-.291,1.995h0Z"/>
    <path class="cls-7" d="M207.983,340.185c.645,0,1.535-.117,2.049-.549,.364-.306,.471-.661-.177-.661s-1.535,.117-2.049,.549c-.364,.306-.471,.661,.177,.661h0Z"/>
    <path class="cls-7" d="M209.603,338.647c.559,0,1.631-.204,1.92-.763,.293-.567-.25-.745-.757-.745-.559,0-1.631,.204-1.92,.763-.293,.567,.25,.745,.757,.745h0Z"/>
    <path class="cls-7" d="M200.151,337.614l.426-2.108c.046-.071,.04-.128-.018-.171-.047-.072-.118-.107-.213-.107-.134-.024-.269-.029-.404-.016-.172,.003-.343,.022-.513,.058-.376,.074-.759,.174-1.105,.341l-.276,.143c-.131,.068-.239,.162-.324,.282l-.426,2.108c-.046,.071-.04,.128,.018,.171,.047,.072,.118,.107,.213,.107,.134,.024,.269,.029,.404,.016,.172-.003,.343-.022,.513-.058,.376-.074,.759-.174,1.105-.341l.276-.143c.131-.068,.239-.162,.324-.282h0Z"/>
    <path class="cls-7" d="M199.708,337.115c.459-.285,.807-.722,.944-1.246,.05-.193,.042-.406,.019-.602-.024-.209-.128-.39-.234-.569-.13-.136-.287-.226-.471-.269-.229-.056-.462-.071-.697-.043-.498,.05-.985,.249-1.352,.593-.872,.816-1.309,2.126-.94,3.286,.083,.262,.334,.407,.583,.477,.332,.094,.764,.066,1.09-.03,.342-.101,.715-.249,.959-.519,.167-.184,.351-.438,.266-.704-.069-.219-.107-.443-.115-.672l.008,.236c-.007-.345,.054-.683,.177-1.005l-.093,.239c.09-.225,.207-.434,.355-.626l-.181,.23c.079-.1,.164-.192,.257-.279l-2.52,.28c.012,.019,.023,.039,.033,.059l-.111-.208c.06,.122,.09,.25,.096,.386l-.008-.236c.001,.136-.022,.267-.069,.395l.093-.239c-.038,.094-.087,.18-.15,.26l.181-.23c-.036,.043-.074,.082-.117,.119l.258-.209c-.035,.028-.071,.054-.109,.078-.218,.136-.488,.407-.532,.678-.04,.249,.099,.488,.319,.604,.637,.338,1.485,.127,2.063-.232h0Z"/>
    <g id="Layer_5" data-name="Layer 5">
      <path class="cls-3" d="M268.224,370.82c-.341-.59-.724-.734-1.381-.787-.337-.027-.248-.078-.135-.003,.132,.088,.032-.002,.023-.02-.21-.433-.613-.807-.824-1.288-.153-.348-.364-.692-.262-1.058,.1-.358,.479-.654,.745-.904,.606-.57,1.306-1.009,2.041-1.392,1.472-.766,3.047-1.331,4.665-1.696,1.627-.367,3.308-.521,4.975-.481,1.587,.038,3.538,.116,4.991,.822,1.471,.714,1.654,2.433,.78,3.71-.893,1.305-2.73,1.724-4.149,2.182-3.816,1.231-7.85,2.067-11.743,.687-.618-.219-1.485,.026-2.036,.33-.31,.172-.951,.679-.315,.905,4.315,1.53,8.997,.803,13.284-.461,2.808-.828,9.377-2.419,8.339-6.661-.459-1.877-2.68-2.289-4.297-2.558-2.122-.352-4.297-.403-6.436-.199-4.142,.395-8.935,1.663-12.182,4.403-.595,.502-1.698,1.303-1.646,2.172,.043,.709,.625,1.768,1.116,2.304,.309,.337,.678,.498,1.13,.547,.13,.014,.261,.011,.392,.013,.255,.003-.066,.04-.126-.021-.083-.085,.08,.107,.151,.231,.471,.817,3.223-.214,2.898-.776h0Z"/>
      <path class="cls-3" d="M274.591,368.528c1.636-.545,3.288-.916,5.003-1.099l.33-1.85c-2.493,.42-4.962,.945-7.404,1.602-.487,.131-1.258,.517-1.225,1.12,.031,.578,.828,.737,1.288,.657,2.359-.412,4.736-.657,7.129-.734l-.44-1.644c-1.419,.508-2.896,.878-4.384,1.117-.572,.092-1.527,.376-1.623,1.073-.094,.684,.808,.831,1.293,.777,1.773-.196,3.546-.288,5.33-.257l.306-1.784c-2.246,.665-4.524,1.135-6.852,1.399-.572,.065-1.529,.394-1.623,1.073-.096,.698,.809,.811,1.293,.777l4.364-.307,.33-1.85-7.111,.717-.33,1.85c1.625-.168,3.227-.144,4.848,.053l.699-1.857c-1.509,.183-3.012,.249-4.531,.185l-.699,1.857c1.496-.069,2.988-.006,4.477,.153l1.068-1.864c-2.554-.03-5.097-.222-7.627-.574l-.306,1.784c1.038-.321,2.055-.459,3.141-.397l.306-1.784c-1.317,.318-2.678,.377-4.016,.149l-.258,1.596c1.593-.729,3.273-1.1,5.028-1.063l-.071-1.65c-2.102,.849-4.326,1.041-6.56,.72l.071,1.65c2.484-1.29,5.119-1.975,7.915-2.067l-.44-1.644c-2.074,.787-4.212,1.273-6.435,1.002l.394,1.472c2-1.42,4.323-2.185,6.785-2.121l-.071-1.65c-2.15,.935-4.442,1.394-6.788,1.34l.394,1.472c3.036-1.863,6.55-2.706,10.099-2.482l-.924-.784c.006,.297-.014,.102,.071,.107,.234,.014-.071-.007-.222,.033-.452,.119-.899,.257-1.35,.376-.96,.253-1.928,.476-2.902,.671-1.874,.374-3.775,.607-5.68,.754l1.201,1.02c.898-1.217,3.067-1.454,4.431-1.685,1.934-.326,3.885-.415,5.84-.296l-.071-1.65c-2.784,1.242-5.764,1.742-8.802,1.508l.924,.784c.116-.51,.847-.549,1.27-.647,.704-.163,1.416-.27,2.136-.337,1.531-.143,3.055-.054,4.571,.189l-.394-1.472c-1.655,.948-3.525,1.31-5.417,1.172l.394,1.472c1.727-1.018,3.742-1.514,5.745-1.412,.496,.025,1.054,.209,1.539,.184,.072-.004,.645-.087,.538-.273-.004-.008-.559,.24-.609,.259-1.045,.399-2.135,.503-3.244,.416l.394,1.472c1.801-1.162,3.922-1.458,5.991-.929l-.323-1.205c-1.045,.894-2.313,1.492-3.674,1.696l.44,1.644c.945-.437,1.941-.606,2.977-.427l-.323-1.205c-.753,.691-1.618,1.079-2.633,1.176l.44,1.644c.999-.549,1.931-.738,3.066-.6l-.071-1.65c-1.924,.767-3.905,1.344-5.932,1.768l.834,1.571c1.12-.611,2.264-1.053,3.508-1.337l-.457-1.705c-1.089,.305-2.19,.44-3.32,.358-.519-.038-1.032-.115-1.538-.238-.587-.142-.862-.099-.33-.495,1.499-1.118,3.445-1.46,5.234-1.835l-.457-1.705c-1.942,.519-3.894,.607-5.882,.331l.394,1.472c1.18-.852,2.434-1.198,3.883-1.059l-.394-1.472c-.394,.232-.772,.238-1.214,.193l.071,1.65c1.292-.586,2.663-.934,4.087-.953l-.071-1.65c-1.443,.769-2.906,1.178-4.54,1.256-.569,.027-1.533,.419-1.623,1.073-.097,.706,.811,.8,1.293,.777,2.122-.101,4.206-.67,6.081-1.669,.367-.196,.88-.502,.848-.987-.028-.431-.521-.669-.919-.664-2.219,.03-4.339,.461-6.366,1.379-.957,.434-1.173,1.523,.071,1.65,1.485,.152,2.864-.226,4.139-.977,.885-.521,.517-1.385-.394-1.472-2.409-.23-4.846,.426-6.808,1.843-.823,.594-.563,1.339,.394,1.472,2.483,.344,4.988,.156,7.407-.49,.493-.132,1.395-.59,1.221-1.24-.18-.67-1.195-.565-1.677-.464-1.585,.331-3.174,.694-4.663,1.347-1.075,.471-3.136,1.422-3.396,2.72-.321,1.601,2.37,1.866,3.397,1.999,1.851,.24,3.737,.054,5.529-.447,.492-.138,1.396-.586,1.221-1.24-.178-.664-1.197-.574-1.677-.464-1.488,.34-2.921,.874-4.262,1.605-.419,.228-1.065,.649-.787,1.213,.274,.557,1.14,.458,1.621,.358,2.288-.479,4.515-1.17,6.686-2.035,1.015-.405,1.126-1.506-.071-1.65-1.834-.222-3.725,.136-5.344,1.027-.373,.205-.985,.577-.844,1.107,.136,.509,.861,.577,1.284,.537,2.014-.193,3.845-1.004,5.335-2.37,.438-.402,.31-1.096-.323-1.205-2.038-.353-4.028-.128-5.913,.744-.383,.177-.981,.596-.844,1.107,.132,.494,.866,.599,1.284,.537,2.401-.359,4.53-1.312,6.376-2.89,.488-.417,.262-1.056-.323-1.205-3.278-.838-6.738-.226-9.574,1.604-.835,.539-.559,1.397,.394,1.472,1.992,.156,3.997-.164,5.829-.971,.666-.293,1.645-.742,1.749-1.569,.101-.799-.692-1.253-1.353-1.448-3.6-1.063-7.847,.021-10.983,1.87-.87,.513-.531,1.404,.394,1.472,2.948,.215,5.786-.493,8.342-1.956,.94-.538,.463-1.334-.394-1.472-2.33-.374-4.708-.351-7.03,.066-1.779,.319-4.455,.796-4.93,2.889-.119,.522,.535,.754,.924,.784,3.803,.293,7.6-.381,11.081-1.934,.927-.414,1.199-1.573-.071-1.65-2.695-.164-5.378,.031-8.022,.578-2.265,.468-4.619,1.134-6.05,3.076-.575,.78,.749,1.055,1.201,1.02,2.58-.198,5.142-.585,7.667-1.154,1.214-.273,2.438-.57,3.616-.971,.847-.289,2.068-.913,2.047-1.962-.011-.526-.43-.753-.924-.784-4.586-.29-9.113,.866-13.024,3.266-.821,.504-.573,1.449,.394,1.472,3.134,.073,6.19-.515,9.067-1.766,.909-.395,1.214-1.617-.071-1.65-3.472-.09-6.871,.889-9.71,2.905-.82,.582-.567,1.354,.394,1.472,2.997,.366,5.929-.371,8.714-1.428,.392-.149,.976-.614,.844-1.107-.141-.526-.856-.551-1.284-.537-3.29,.109-6.535,.963-9.456,2.48-.94,.488-1.181,1.471,.071,1.65,3.008,.431,6.03-.013,8.839-1.147,.93-.376,1.198-1.623-.071-1.65-2.535-.054-4.998,.432-7.307,1.489-.604,.277-1.411,1.399-.258,1.596,2.093,.358,4.132,.301,6.199-.198,.449-.108,1.157-.469,1.229-1,.071-.517-.494-.759-.924-.784-1.585-.091-3.148,.086-4.665,.556-1.034,.32-1.871,1.566-.306,1.784,2.53,.353,5.073,.544,7.627,.574,.651,.008,1.574-.191,1.9-.837,.32-.634-.28-.968-.832-1.027-1.737-.185-3.471-.22-5.215-.139-.549,.025-1.399,.376-1.577,.951-.175,.566,.359,.884,.878,.905,1.761,.074,3.52,.013,5.27-.199,.557-.067,1.39-.347,1.577-.951,.183-.593-.369-.844-.878-.905-1.857-.226-3.726-.232-5.587-.039-.572,.059-1.53,.398-1.623,1.073-.095,.687,.808,.826,1.293,.777l7.111-.717c.572-.058,1.53-.399,1.623-1.073,.096-.698-.809-.811-1.293-.777l-4.364,.307-.33,1.85c2.587-.294,5.142-.806,7.639-1.545,.449-.133,1.155-.454,1.229-1,.069-.505-.493-.776-.924-.784-2.028-.036-4.052,.047-6.068,.27l-.33,1.85c2.031-.326,3.988-.837,5.924-1.53,.394-.141,.974-.619,.844-1.107-.141-.526-.856-.551-1.284-.537-2.393,.078-4.77,.322-7.129,.734l.063,1.777c2.183-.587,4.388-1.081,6.617-1.456,.572-.096,1.526-.373,1.623-1.073,.094-.685-.808-.829-1.293-.777-1.97,.21-3.909,.619-5.789,1.245-.485,.161-1.4,.569-1.221,1.24,.169,.63,1.21,.62,1.677,.464h0Z"/>
      <path class="cls-3" d="M219.183,363.681c.378-.655-1.047,.436-1.311,.404,.186,.022,.461-.02,.619-.044,.625-.092,1.276-.308,1.787-.688,.967-.718,2.065-2.643,1.208-3.674-2.571-3.088-7.373-4.43-11.19-4.938-2.133-.284-4.3-.278-6.435-.026-1.901,.225-4.22,.544-5.68,1.907-1.307,1.22-1.15,3.1-.076,4.427,1.233,1.524,3.431,2.094,5.213,2.67,4.903,1.585,9.986,2.386,14.957,.623,.319-.113,1.185-.517,.828-.959-.342-.424-1.519-.044-1.887,.087-3.357,1.191-7.139,.348-10.439-.64-1.608-.482-3.434-.928-4.851-1.857-1.179-.773-2.295-2.351-1.602-3.809,.606-1.275,2.988-1.189,4.178-1.25,1.754-.09,3.519,.041,5.244,.374,1.739,.336,3.444,.897,5.054,1.633,1.382,.632,2.914,1.455,3.86,2.688,.606,.79-.182,1.553-.5,2.315-.008,.02-.157,.176-.151,.188,.005,.01,1.239-.395,1.249-.387-.044-.033-.226,.003-.288,.004-1.051,.021-2.128,.478-2.661,1.402-.3,.519,1.022,.442,1.196,.417,.586-.084,1.362-.321,1.678-.868h0Z"/>
      <path class="cls-3" d="M211.022,359.498c-1.861-.62-3.775-1.018-5.725-1.227-.616-.066-1.439,.206-1.81,.72-.306,.424-.178,.989,.413,1.089,2.361,.398,4.698,.907,7.01,1.529l1.726-1.754c-2.47-.431-4.951-.708-7.458-.789-.634-.021-1.419,.178-1.81,.72-.35,.486-.126,.896,.413,1.089,1.787,.64,3.611,1.078,5.483,1.378l1.068-1.864c-1.895-.21-3.793-.297-5.699-.264-.645,.011-1.406,.159-1.81,.72-.337,.467-.144,.924,.413,1.089,2.477,.733,5.008,1.235,7.574,1.526l1.068-1.864-4.364-.307c-.641-.045-1.586,.215-1.9,.837-.319,.632,.278,.971,.832,1.027l7.111,.717c.635,.064,1.592-.226,1.9-.837,.32-.633-.279-.969-.832-1.027-1.86-.193-3.731-.173-5.587,.053-.566,.069-1.379,.347-1.577,.951-.194,.591,.379,.845,.878,.905,1.754,.212,3.505,.259,5.27,.185,.557-.023,1.389-.378,1.577-.951,.186-.566-.369-.882-.878-.905-1.741-.08-3.482-.032-5.215,.153-.564,.06-1.38,.353-1.577,.951-.18,.547,.362,.911,.878,.905,2.679-.032,5.342-.211,7.996-.581,.526-.073,1.268-.304,1.531-.83,.23-.461-.043-.83-.503-.972-1.505-.465-3.031-.614-4.601-.524-.514,.029-1.281,.33-1.531,.83-.221,.442,.031,.858,.503,.972,1.91,.462,3.867,.553,5.806,.221,.526-.09,1.112-.257,1.441-.714,.22-.305,.284-.782-.14-.977-2.279-1.044-4.637-1.489-7.138-1.435-.916,.02-2.435,1.234-1.028,1.802,2.658,1.073,5.564,1.388,8.398,.981,.547-.078,2.495-1.07,1.301-1.69-2.883-1.499-6.038-2.334-9.288-2.44-.634-.021-1.419,.178-1.81,.72-.355,.492-.12,.886,.413,1.089,2.648,1.005,5.433,1.61,8.272,1.263,.677-.083,2.357-.94,1.301-1.69-2.714-1.927-5.913-2.758-9.218-2.673-.577,.015-2.487,1.174-1.301,1.69,2.844,1.238,5.801,1.786,8.898,1.713,.664-.016,2.385-1.025,1.301-1.69-3.767-2.312-8.134-3.311-12.533-3.034-.501,.032-1.61,.426-1.623,1.073-.02,1.021,.754,1.47,1.64,1.77,1.156,.392,2.37,.666,3.56,.93,2.447,.543,4.932,.906,7.431,1.098,.646,.05,2.566-.583,1.871-1.533-1.28-1.746-3.657-2.258-5.661-2.651-2.539-.497-5.102-.648-7.683-.49-.507,.031-1.14,.296-1.441,.714-.218,.303-.287,.786,.14,.977,3.45,1.541,7.145,2.172,10.912,1.881,.582-.045,1.787-.517,1.614-1.313-.397-1.825-2.923-2.147-4.427-2.398-2.26-.376-4.563-.377-6.825-.014-.57,.092-2.467,1.022-1.301,1.69,2.4,1.376,5.1,1.926,7.85,1.724,.627-.046,2.421-1.03,1.301-1.69-3.068-1.81-7.196-2.63-10.672-1.586-.711,.214-1.632,.68-1.837,1.461-.216,.821,.511,1.245,1.158,1.534,1.803,.803,3.725,1.084,5.687,.929,.661-.052,2.381-.987,1.301-1.69-2.292-1.493-6.627-3.009-8.844-.577-.888,.975-.057,1.78,.891,2.196,.579,.254,1.183,.44,1.79,.615,.237,.068,.474,.132,.711,.201,.1,.029,.677,.236,.422,.122,.654,.293,1.476,.187,2.064-.225,.39-.273,.869-.998,.207-1.305-1.707-.793-3.554-1.071-5.416-.745-.411,.072-2.314,.781-1.501,1.526,1.354,1.242,2.958,1.929,4.786,2.104,.566,.054,1.325-.171,1.72-.604,.3-.329,.415-.838-.05-1.094-1.595-.877-3.372-1.192-5.176-.973-.847,.103-2.498,1.216-1.028,1.802,2.048,.816,4.151,1.45,6.309,1.902,.655,.137,1.403,0,1.92-.443,.365-.312,.639-.894,.079-1.199-1.312-.715-2.7-1.25-4.157-1.583-.68-.155-1.562,.017-2.049,.549-.428,.468-.312,1.027,.323,1.205,1.697,.476,3.471,.641,5.226,.445,1.3-.145,3.899-.43,4.325-1.988,.366-1.337-1.916-2.384-2.855-2.8-1.458-.646-3.004-1-4.558-1.325-.685-.143-1.556,.01-2.049,.549-.424,.463-.316,1.034,.323,1.205,2.399,.643,4.882,.801,7.342,.459,.676-.094,2.356-.929,1.301-1.69-1.836-1.326-4.078-1.825-6.317-1.611-.615,.059-2.43,1.025-1.301,1.69,1.123,.662,2.357,.877,3.647,.744,.515-.053,1.129-.281,1.441-.714,.219-.304,.285-.784-.14-.977-1.85-.839-3.793-1.305-5.829-1.333-.588-.008-1.303,.146-1.72,.604-.296,.325-.419,.844,.05,1.094,1.838,.98,3.831,1.53,5.912,1.629,.645,.031,1.581-.206,1.9-.837,.309-.611-.267-1-.832-1.027-1.673-.08-3.23-.508-4.709-1.296l-1.67,1.697c1.611,.022,3.154,.333,4.625,1l1.301-1.69c-.639,.065-1.154-.1-1.705-.425l-1.301,1.69c1.606-.153,3.08,.356,4.375,1.291l1.301-1.69c-2.011,.28-3.984,.163-5.946-.363l-1.726,1.754c1.956,.409,4.023,.818,5.661,2.035,.112,.084,.423,.441,.534,.461l.476-.298c-.157,.047-.315,.089-.474,.126-.506,.125-1.021,.193-1.542,.228-1.134,.076-2.251-.086-3.341-.392l-1.726,1.754c1.275,.292,2.463,.733,3.612,1.359l1.999-1.643c-2.158-.452-4.261-1.086-6.309-1.902l-1.028,1.802c1.159-.14,2.213,.092,3.234,.654l1.67-1.697c-1.2-.115-2.294-.629-3.181-1.442l-1.501,1.526c1.208-.211,2.355-.094,3.474,.426l2.272-1.531c-.649-.291-1.344-.443-2.022-.647-.351-.105-.713-.207-1.048-.356-.132-.059-.256-.152-.389-.203-.095-.037-.124-.104-.128-.103,.09-.023-.09,.527-.084,.324-.005,.176-.47-.051,.066,.024,.482,.068,.914,.085,1.39,.221,.957,.274,1.868,.702,2.702,1.244l1.301-1.69c-.807,.064-1.608,.015-2.397-.171-.445-.105-1.866-.397-1.917-.855l-.083,.483c-.322,.116-.338,.141-.047,.074,.2-.031,.401-.057,.603-.078,.301-.031,.607-.056,.91-.062,.671-.012,1.364,.045,2.025,.159,1.412,.244,2.738,.768,3.969,1.495l1.301-1.69c-2.085,.153-4.103-.369-5.909-1.404l-1.301,1.69c1.692-.272,3.378-.328,5.081-.121,.985,.119,3.338,.237,3.604,1.46l1.614-1.313c-3.072,.238-6.157-.305-8.971-1.561l-1.301,1.69c2.098-.128,4.222-.01,6.286,.395,1.654,.324,3.654,.651,4.714,2.098l1.871-1.533c-1.929-.148-3.847-.393-5.744-.772-.917-.183-1.828-.392-2.732-.627-.313-.081-2.314-.412-2.306-.831l-1.623,1.073c3.734-.236,7.413,.764,10.591,2.714l1.301-1.69c-2.38,.056-4.777-.445-6.956-1.393l-1.301,1.69c2.624-.068,5.155,.847,7.276,2.354l1.301-1.69c-2.377,.29-4.669-.329-6.876-1.167l-1.397,1.809c2.837,.093,5.564,.798,8.084,2.107l1.301-1.69c-2.41,.346-4.747,.025-7.001-.886l-1.028,1.802c1.788-.038,3.575,.374,5.196,1.116l1.301-1.69c-1.49,.255-2.939,.23-4.41-.126l-1.028,1.802c1.1-.063,2.155,.104,3.205,.428l1.028-1.802c-2.405,.335-4.829,.539-7.258,.568l-.699,1.857c1.493-.159,2.977-.208,4.477-.139l.699-1.857c-1.515,.064-3.026-.017-4.531-.199l-.699,1.857c1.623-.197,3.222-.208,4.848-.039l1.068-1.864-7.111-.717-1.068,1.864,4.364,.307c.641,.045,1.586-.215,1.9-.837,.322-.636-.281-.964-.832-1.027-2.348-.267-4.651-.747-6.917-1.417l-1.397,1.809c1.906-.034,3.804,.054,5.699,.264,.632,.07,1.594-.23,1.9-.837,.331-.654-.292-.94-.832-1.027-1.646-.263-3.257-.707-4.825-1.269l-1.397,1.809c2.279,.074,4.553,.287,6.8,.68,.695,.121,1.545,.001,2.049-.549,.424-.463,.316-1.033-.323-1.205-2.312-.622-4.649-1.131-7.01-1.529l-1.397,1.809c1.734,.185,3.413,.567,5.067,1.117,.645,.215,1.593-.051,2.049-.549,.446-.487,.293-1-.323-1.205h0Z"/>
      <path class="cls-3" d="M199.407,357.02l-.515,1.155c-.081,.182,.097,.298,.247,.336,.243,.063,.501,.044,.746,.014,.321-.039,.649-.11,.95-.228,.28-.109,.596-.233,.806-.456,.186-.197,.372-.394,.558-.592l-2.766,.477c.15,.303,.209,.635,.176,.971l.017-.143c-.005,.04-.011,.079-.018,.119l-.017,.143c.033,.084,.091,.135,.175,.154,.206,.09,.435,.08,.655,.074,.337-.009,.684-.095,1.003-.196,.294-.093,.6-.203,.855-.382,.094-.066,.195-.136,.271-.224,.068-.079,.145-.168,.158-.274l.017-.143c-.033-.084-.091-.135-.175-.154-.204-.089-.437-.082-.655-.074-.411,.015-.835,.122-1.22,.264-.28,.104-.551,.233-.786,.42-.209,.166-.348,.342-.347,.617,.052,.11,.14,.174,.264,.193,.187,.041,.376,.053,.567,.036,.254-.019,.503-.062,.749-.129,.246-.065,.484-.152,.713-.262,.761-.42,1.468-.9,2.116-1.482,.128-.115,.191-.29,.045-.415-.094-.059-.195-.091-.304-.096-.145-.028-.292-.034-.44-.017-.383,.03-.772,.11-1.13,.25-.291,.114-.571,.245-.806,.456-.133,.119-.269,.235-.409,.347l.2-.159c-.189,.149-.383,.292-.583,.426-.097,.065-.196,.128-.295,.189-.047,.029-.094,.057-.141,.085-.043,.025-.181,.104,.029-.016s.072-.041,.028-.017l2.293-.163v-.031c-.006,.048-.012,.096-.017,.143,.006-.054,.023-.096,.051-.142l-.115,.156c.02-.025,.039-.045,.064-.066l-.2,.159-1.565,.488-.813-.372c-.005,.046-.018,.08-.043,.119l.115-.156c-.013,.017-.028,.033-.045,.046l.2-.159,.521-.253,.77-.206,.296-.037,.813,.372c.074-.427,.053-.84-.141-1.233-.076-.154-.233-.188-.39-.212-.262-.039-.54-.021-.799,.027-.262,.048-.52,.117-.77,.206-.26,.092-.61,.248-.806,.456-.186,.197-.372,.394-.558,.592l2.749-.334,.515-1.155c.084-.187-.099-.291-.247-.336-.272-.084-.658-.042-.926,.008-.377,.07-.763,.17-1.103,.348-.21,.11-.486,.242-.588,.47h0Z"/>
      <path class="cls-3" d="M211.233,363.003c1.016,.504,2.081,.89,3.175,1.19,.319,.087,.772,.014,1.08-.069,.319-.085,.724-.246,.969-.48,.151-.144,.378-.376,.291-.611-.09-.245-.326-.32-.557-.383-.176-.048-.351-.099-.526-.153l.265,.081c-.819-.255-1.616-.574-2.385-.956-.272-.135-.664-.127-.952-.091-.36,.045-.789,.171-1.097,.37-.207,.133-.515,.332-.553,.598-.034,.236,.076,.395,.291,.502h0Z"/>
      <path class="cls-3" d="M282.48,364.999c.017-.003,.034-.005,.051-.006l-.363,.028c.027-.002,.054-.002,.081,0l-.32-.021c.041,.003,.08,.009,.12,.019l-.261-.069c.066,.017,.128,.044,.187,.079l-.187-.114c.09,.056,.166,.129,.223,.219l-.097-.156c.032,.052,.056,.108,.072,.167,.032,.103,.095,.174,.191,.213,.104,.075,.222,.117,.355,.125,.167,.027,.335,.029,.502,.007,.194-.008,.385-.039,.573-.095l.379-.126c.215-.083,.413-.195,.595-.336l.192-.19c.097-.109,.134-.234,.111-.376-.011-.041-.025-.081-.045-.119-.045-.089-.099-.175-.159-.255-.051-.066-.114-.122-.184-.166-.089-.056-.189-.125-.291-.167-.117-.048-.247-.075-.368-.102-.137-.031-.304-.032-.43-.036-.162-.005-.325,.01-.485,.036-.2,.025-.393,.073-.581,.143-.182,.052-.354,.125-.518,.22-.139,.069-.26,.16-.362,.274-.094,.075-.161,.171-.201,.287l-.006,.184c.051,.134,.146,.224,.284,.27l.261,.069c.228,.031,.456,.028,.683-.007h0Z"/>
      <path class="cls-3" d="M264.653,370.76c-.003,.008-.007,.017-.011,.025l.104-.197c-.012,.022-.026,.042-.043,.06l.191-.194c-.013,.012-.026,.024-.041,.034l.266-.182c-.012,.008-.024,.015-.037,.021l.328-.159c-.013,.006-.026,.012-.04,.016l.379-.127c-.012,.004-.024,.007-.036,.01l.391-.08c-.014,.003-.028,.005-.043,.006l.364-.026c-.016,.001-.032,0-.048,0l.321,.024c-.018-.002-.035-.005-.052-.009l.262,.073c-.024-.007-.046-.016-.068-.029l.188,.118c-.015-.01-.029-.021-.042-.033-.092-.083-.199-.135-.319-.155-.146-.049-.296-.07-.452-.061-.19-.002-.376,.02-.56,.066-.198,.032-.389,.088-.575,.167l-.328,.159c-.177,.096-.329,.221-.456,.376l-.104,.197c-.038,.135-.006,.252,.094,.35,.009,.009,.018,.017,.029,.024,.069,.049,.141,.095,.215,.135,.011,.006,.022,.011,.034,.015,.095,.034,.194,.059,.293,.082,.127,.029,.26,.033,.39,.032,.301-.001,.529-.044,.822-.113,.076-.018,.154-.049,.223-.073,.066-.022,.151-.045,.222-.076,.281-.124,.408-.192,.649-.373,.174-.131,.3-.299,.379-.501,.037-.104,.022-.194-.045-.27-.045-.1-.124-.167-.238-.199-.136-.056-.277-.084-.423-.085-.175-.021-.35-.017-.524,.014l-.391,.08c-.248,.065-.484,.16-.707,.286l-.266,.182c-.137,.102-.235,.232-.295,.391h0Z"/>
    </g>
    <path class="cls-7" d="M202.277,348.742c-3.559-3.471-4.738-8.996-2.938-13.624,.215-.553-.958-.46-1.198-.423-.509,.078-1.459,.311-1.677,.872-1.886,4.85-.622,10.595,3.099,14.225,.611,.596,3.307-.47,2.714-1.049h0Z"/>
    <path class="cls-7" d="M195.84,336.239c.644,0,1.534-.123,2.049-.549,.368-.304,.471-.643-.172-.643s-1.534,.123-2.049,.549c-.368,.304-.471,.643,.172,.643h0Z"/>
    <path class="cls-7" d="M266.283,343.697c.349,2.587,.704,5.27,1.955,7.603,1.063,1.982,2.706,3.676,4.892,4.365,.663,.209,1.451,.046,2.045-.299,.307-.178,.955-.814,.282-1.026-4.776-1.505-5.701-7.152-6.276-11.419-.116-.86-3.032-.22-2.898,.776h0Z"/>
    <path class="cls-7" d="M293.482,352.446c1.003-4.467,.423-9.189-1.69-13.255-.446-.859-3.239,.121-2.898,.776,2.059,3.962,2.687,8.55,1.708,12.91-.198,.882,2.686,.428,2.879-.432h0Z"/>
    <path class="cls-7" d="M294.344,351.605c.811-3.855,.524-7.881-.869-11.568-.323-.856-3.185,.015-2.898,.776,1.354,3.583,1.678,7.475,.888,11.225-.186,.886,2.699,.42,2.879-.434h0Z"/>
    <path class="cls-7" d="M289.256,352.856c-1.35,2.739-5.044-.462-6.361-1.588l-1.953,1.814c1.007,.246,2.014,.493,3.021,.739,.778,.191,3.022-.408,2.162-1.616-.75-1.054-1.701-1.894-2.853-2.484-.66-.338-1.477-.289-2.078,.175-.42,.324-.822,1.157-.155,1.499,1.237,.636,2.473,1.272,3.71,1.908,.704,.362,3.071,.062,2.566-1.225-.863-2.195-1.883-4.32-3.052-6.369l-2.443,1.476c1.8,1.638,3.6,3.275,5.4,4.913,.692,.63,3.003-.099,2.566-1.225-.938-2.413-1.953-4.793-3.045-7.141l-2.285,1.366c2.433,1.11,4.44,3.007,5.751,5.332,.546,.969,.759,2.446,2.06,2.647,1.174,.182,2.516-.604,2.361-1.861-.126-1.027-1.91-.685-2.41-.274-.443,.364-.886,.727-1.329,1.091l2.41,.274c-.2-2.164-.864-4.161-1.918-6.056-.63-1.133-2.881-.138-2.775,1.027,.091,1.004,.182,2.007,.273,3.011l2.898-.776c-.435-1.493-.87-2.987-1.306-4.48-.388-1.33-3.212-.577-2.898,.776,.371,1.598,.454,3.165,.263,4.794l2.794-.749c-1.558-1.807-3.96-2.392-6.233-1.761-.582,.162-1.639,.904-1.06,1.633,1.303,1.639,3.537,2.773,5.379,1.18,1.674-1.448,.092-3.221,.383-4.956l-2.917,.498c.4,.96,.8,1.92,1.2,2.881,.512,1.23,2.678,.668,2.917-.498,.335-1.635,.147-3.275-.58-4.779-.507-1.049-2.906-.81-2.917,.498l-.047,5.682,2.917-.498c-.483-3.142-1.314-6.197-2.491-9.15l-2.285,1.366c1.199,.487,2.118,1.278,2.852,2.336l2.162-1.616c-1.506-.61-2.472-1.911-2.811-3.476l-1.95,1.443c1.141,.207,2.103,1.027,2.585,2.072l1.95-1.443c-1.302-.121-2.196-.629-3.243-1.362-.516-.361-.923-.32-1.543-.311-.745,.011-1.449-.068-2.167-.274-.657-.188-1.422-.05-1.923,.432-.409,.393-.561,1-.03,1.382,1.909,1.372,3.691,2.891,5.328,4.578l1.828-1.693c-1.817-.362-3.418-1.218-4.824-2.411-.824-.699-3.396,.444-2.443,1.476,2.394,2.593,4.789,5.187,7.183,7.78l1.06-1.633c-1.2,.219-2.378,.02-3.504-.411-.934-.358-3.333,.949-1.953,1.814,1.067,.669,1.997,1.451,2.819,2.406l1.828-1.693c-1.174-.085-2.348-.17-3.522-.255-.868-.063-2.827,.914-1.618,1.891,.629,.508,1.257,1.017,1.886,1.525l1.245-1.899c-1.8,.249-3.539,.145-5.283-.38-.652-.196-1.427-.045-1.923,.432-.375,.36-.604,1.049-.03,1.382,.999,.579,2.042,.918,3.201,.942l.63-2.116-2.564-.029-.257,2.124-.285,.05,1.183-1.382c-5.28,1.36-9.161-3.09-9.567-8.028l-2.775,1.027c.418,.757,.837,1.515,1.255,2.272,.578,1.046,3.065,.187,2.775-1.027-.181-.757-.361-1.514-.542-2.272-.122-.512-.663-1.688-.385-2.159l-1.119,.828,.208-.056-1.103-.017-.174-.076-.059-.805-.074,.163c-.691,1.52,1.962,1.332,2.598,.595,.3-.347,.461-.433,.903-.526,.648-.137,1.572-.905,1.06-1.633-.221-.314-.209-.83,.154-1.056,.402-.25,1.353,.062,1.762,.16l-.125-1.64c-1.287,.789-2.677,1.335-4.138,1.703l1.652,1.161-.199,.076-.908-1.85c-.568,.291-1.136,.582-1.704,.873-1.492,.764-.576,2.286,.908,1.85,2.36-.694,4.768-.268,6.807,1.093l.475-1.692c.239-.108,.061,.055-.091-.118-.134-.153-.317-.223-.453-.399-.251-.322-.391-.725-.236-1.121l-2.222,.811c.624,.169,1.248,.338,1.872,.507,.782,.212,1.829-.022,2.222-.811-.46,.047-.556,.139-.286,.276,.148,.091,.267,.213,.357,.365,.23,.284,.402,.634,.56,.959l1.183-1.382c-.989,.318-1.866-.529-2.13-1.432l-1.577,1.45c.498-.046,1.032-.096,1.425,.277,.157,.149,.177,.41,.299,.538,.098,.102,1.017,.388,.767-.103l-1.455,1.7c.608-.043,1.11,.318,1.479,.777,.182,.227,.319,.461,.41,.741,.058,.178,.011,.844,.292,.738l1.143-.199c-.543-.033-.979-.502-1.255-.941-.177-.283-.306-.603-.364-.933-.092-.528,.264-.844-.479-.321-.673,.473-.328,.365,.117,.869,.199,.225,.374,.476,.525,.735,.355,.612,.518,1.267,.605,1.964l1.577-1.45c.182-.008-.235-.3-.365-.473-.233-.311-.426-.699-.584-1.049-.29-.642-.498-1.324-.641-2.012-.31-1.502-.207-3.005,.186-4.481l-2.585,.947c1.051,.57,2.772,1.745,2.275,3.173-.342,.982-1.473,1.627-2.022,2.502-.609,.97-.507,1.8-.052,2.806,.05,.111,.233,.71,.321,.792,1.203-.177,1.534-.396,.992-.655-.178-.098-.343-.215-.495-.352-.685-.531-1.253-1.182-1.779-1.865l-2.443,1.476c.912,.55,1.691,1.217,2.321,2.082,.298,.41,.571,.848,.769,1.315,.062,.147,.107,.519,.192,.629-.011,.336,.175,.302,.559-.102,.658-.152,.718-.299,.182-.44-.745-.648-1.585-1.054-2.25-1.827-.723-.841-1.26-1.778-1.633-2.82l-2.285,1.366c2.005,.825,3.242,2.69,3.506,4.804l2.285-1.366c-2.448-.721-4.334-2.551-5.134-4.976l-2.285,1.366c1.602,.699,2.546,2.206,2.772,3.899l.488-1.051c-.489,.304-1.315,.788-1.732,.802,.367-.012,.081,.14,.06-.095-.017-.192-.129-.411-.16-.609-.167-1.099,.078-2.27,.139-3.371l-2.794,.749c1.411,1.365,2.725,2.812,3.947,4.349l2.443-1.476c-.827-.732-1.508-1.669-1.919-2.696-.2-.501-.259-1.034-.434-1.535-.155-.444,.248-.537-.515-.3-.751,.234-.315,.227,.122,.53,1.82,1.263,3.015,3.173,3.519,5.312l2.285-1.366c-2.544-.619-4.411-2.571-4.97-5.123l-.807,1.244c1.3-.62,2.496,1.393,2.376,2.454l2.304-1.088c-2.614-.717-4.453-2.84-4.913-5.495l-1.183,1.382c1.141-.421,2.314,1.761,2.775,2.554,.393,.676,.748,1.372,1.057,2.091,.159,.37,.311,.746,.447,1.125,.067,.187,.168,.85,.267,1.011,.017,.028,.862-.59-.002,.002-.094,.064-.185,.13-.279,.195-.315,.219-.622,.448-.934,.671-.395,.283-.791,.566-1.196,.835-.111,.073-.272,.154-.36,.238-.264,.25-.63-.02,.291-.01l.988,.225c.368,.19-.03,.315,.206-.118,.085-.155,.123-.368,.18-.535,.157-.459,.355-.928,.432-1.408,.068-.428,.061-.822-.166-1.2-.132-.22-.37-.363-.504-.587-.127-.201-.207-.418-.24-.653,.185-.48,.002-.566-.548-.256l2.443-1.476c-.601-.535-.895-1.206-1.041-1.984l-2.285,1.366c1.868,.863,3.558,2.067,4.992,3.54,.915,.939,3.658-.245,2.653-1.277-1.739-1.786-3.71-3.173-5.973-4.218-.836-.386-2.485,.297-2.285,1.366,.222,1.186,.814,2.088,1.705,2.882,.816,.727,3.381-.441,2.443-1.476-1.13-1.246-3.214-1.022-4.343,.151-.554,.576-.809,1.366-.66,2.16,.076,.403,.254,.814,.485,1.154,.004,.006,.455,.626,.427,.466,.18,1.017-1.001,2.014-.69,3.099,.369,1.286,1.985,.935,2.849,.456,1.046-.58,2.03-1.322,2.987-2.037,.08-.06,.598-.458,.148-.128,.37-.272,.715-.452,.956-.865,.44-.753,.224-1.597-.048-2.365-1.073-3.024-3.591-8.5-7.709-6.982-.6,.221-1.314,.625-1.183,1.382,.556,3.209,3.013,5.816,6.139,6.674,.794,.218,2.19-.076,2.304-1.088,.399-3.525-3.776-5.288-6.596-3.944-.46,.219-.928,.69-.807,1.244,.677,3.088,3.129,5.556,6.196,6.302,.807,.196,2.562-.187,2.285-1.366-.428-1.819-1.316-3.523-2.623-4.868-1.119-1.152-2.694-2.512-4.414-2.167-1.846,.37-2.168,1.984-1.776,3.567,.454,1.831,1.512,3.37,2.909,4.607,.81,.717,3.329-.362,2.443-1.476-1.222-1.537-2.536-2.984-3.947-4.349-.712-.688-2.725-.496-2.794,.749-.086,1.531-.625,3.666,.306,5.037,1.454,2.144,4.699,.302,6.245-.659,.366-.228,.543-.638,.488-1.051-.312-2.336-1.873-4.151-3.998-5.077-.741-.323-2.64,.291-2.285,1.366,.983,2.981,3.347,5.267,6.36,6.155,.901,.265,2.429-.214,2.285-1.366-.343-2.746-2.208-4.943-4.732-5.982-.724-.298-2.672,.285-2.285,1.366,.593,1.657,1.522,3.102,2.828,4.287,1.148,1.042,2.771,2.22,4.413,1.809,4.344-1.085-.413-6.275-2.25-7.384-.817-.493-3.388,.249-2.443,1.476,1.152,1.494,3.033,3.661,5.173,3.07,.836-.231,1.661-.904,1.689-1.82,.025-.83-.797-1.507-.716-2.302,.064-.627,.84-1.168,1.238-1.594,.559-.598,1.061-1.255,1.25-2.066,.48-2.062-1.355-3.756-2.989-4.642-.914-.495-2.299-.122-2.585,.947-.552,2.07-.503,4.306,.21,6.334,.646,1.838,1.691,3.683,3.873,3.584,.763-.034,1.684-.595,1.577-1.45-.268-2.151-2.015-5.042-4.531-4.712-2.734,.359-2.452,3.525-.906,5.065,1.646,1.64,5.072,1.567,4.993-1.361-.065-2.421-2.429-3.93-4.67-3.771-.847,.06-1.935,.757-1.455,1.7,.953,1.872,4.249,.945,4.763-.824,.753-2.59-2.442-3.466-4.345-3.289-.634,.059-1.829,.591-1.577,1.45,.688,2.345,3.334,3.36,5.561,2.644,.451-.145,1.505-.719,1.183-1.382-.616-1.266-1.36-2.52-2.879-2.753-1.341-.205-2.8,.353-3.42,1.597l2.222-.811c-.624-.169-1.248-.338-1.872-.507-.72-.195-1.905,0-2.222,.811-1.159,2.969,2.408,4.785,4.836,3.681,.612-.278,1.244-1.179,.475-1.692-2.826-1.887-6.321-2.363-9.573-1.407l.908,1.85c.568-.291,1.136-.582,1.704-.873,1.475-.755,.577-2.338-.908-1.85-.918,.302-1.556,.734-2.04,1.579-.587,1.027,1.011,1.322,1.652,1.161,1.98-.499,3.79-1.301,5.527-2.366,.631-.387,.719-1.438-.125-1.64-1.773-.424-3.774-.74-5.349,.446-1.158,.872-1.789,2.408-.892,3.682l1.06-1.633c-1.115,.236-2.053,.798-2.796,1.657l2.598,.595c.832-1.832-2.16-1.958-3.048-.965-.59,.659-.413,1.395-.24,2.167,.272,1.215,.578,2.424,.867,3.635l2.775-1.027c-.418-.757-.837-1.515-1.255-2.272-.63-1.141-2.87-.131-2.775,1.027,.249,3.035,1.649,5.934,4.118,7.779,2.563,1.915,5.843,2.243,8.88,1.461,.512-.132,1.436-.712,1.183-1.382-.407-1.077-1.265-1.386-2.356-1.397-1.658-.016-2.221,2.102-.257,2.124l2.564,.029c1.312,.015,2.389-2.079,.63-2.116-.726-.015-1.338-.141-1.97-.507l-1.953,1.814c2.188,.658,4.432,.863,6.699,.549,.823-.114,2.298-1.047,1.245-1.899-.629-.508-1.257-1.017-1.886-1.525l-1.618,1.891c1.174,.085,2.348,.17,3.522,.255,.682,.049,2.679-.704,1.828-1.693-.944-1.096-2.013-2.034-3.239-2.803l-1.953,1.814c1.872,.717,3.751,.802,5.709,.444,.554-.101,1.675-.966,1.06-1.633-2.394-2.593-4.789-5.187-7.183-7.78l-2.443,1.476c1.757,1.49,3.805,2.397,6.055,2.845,.684,.136,2.698-.796,1.828-1.693-1.771-1.825-3.681-3.491-5.747-4.975l-1.953,1.814c1.319,.378,2.628,.522,3.997,.408l-.988-.225c1.308,1.128,2.898,1.758,4.613,1.917,.604,.056,2.399-.469,1.95-1.443-.874-1.897-2.433-3.032-4.48-3.404-.783-.142-2.161,.469-1.95,1.443,.472,2.178,1.993,3.828,4.037,4.655,.828,.335,2.95-.481,2.162-1.616-.967-1.394-2.265-2.377-3.833-3.014-.699-.284-2.713,.291-2.285,1.366,1.177,2.953,2.008,6.008,2.491,9.15,.193,1.257,2.907,.651,2.917-.498l.047-5.682-2.917,.498c.661,1.368,.847,2.732,.542,4.223l2.917-.498c-.4-.96-.8-1.92-1.2-2.881-.501-1.204-2.717-.694-2.917,.498-.153,.91,.119,1.745,.321,2.621,.016,.068,.13,1.031,.08,1.006l.473-.346c-.16-.096-.307-.208-.442-.337-.23-.202-.414-.426-.605-.666l-1.06,1.633c1.158-.322,2.28,.16,3.047,1.05,.704,.816,2.659,.401,2.794-.749,.211-1.798,.108-3.587-.301-5.35l-2.898,.776c.435,1.493,.87,2.987,1.306,4.48,.401,1.377,3.019,.562,2.898-.776-.091-1.004-.182-2.007-.273-3.011l-2.775,1.027c.959,1.725,1.492,3.594,1.673,5.555,.096,1.035,1.927,.671,2.41,.274,.443-.364,.886-.727,1.329-1.091l-2.41-.274,.027,.219,.236-.817-.181,.177,1.341-.633-.257,.023,.988,.225c-.283-.197-.422-.847-.569-1.151-.196-.406-.405-.805-.637-1.191-.522-.868-1.144-1.675-1.846-2.405-1.358-1.41-2.928-2.485-4.705-3.296-.666-.304-2.766,.331-2.285,1.366,1.092,2.348,2.107,4.728,3.045,7.141l2.566-1.225c-1.8-1.638-3.6-3.275-5.4-4.913-.845-.768-3.137,.26-2.443,1.476,1.079,1.891,2.011,3.842,2.807,5.868l2.566-1.225c-1.237-.636-2.473-1.272-3.71-1.908l-2.233,1.674c.998,.511,1.784,1.173,2.434,2.087l2.162-1.616c-1.007-.246-2.014-.493-3.021-.739-.924-.226-3.268,.69-1.953,1.814,1.765,1.509,3.709,2.998,6.133,3.062,2.1,.055,4.272-.866,5.233-2.815,.726-1.472-2.202-1.488-2.771-.333h0Z"/>
    <path class="cls-7" d="M275.744,346.4l-5.49-5.466-1.932,1.892c2.081,1.031,5.13,2.728,4.923,5.452-.053,.705-.27,1.446,.103,2.103,.249,.438,.667,.705,1.079,.969,.123,.079,.531,.458,.441,.217-.104-.277-.112,.228-.138,.357-.085,.412-.109,.858,.01,1.267,.688,2.367,4.154,1.669,5.829,1.157,1.47-.449,2.918-1.188,3.731-2.554,.339-.57,.525-1.213,.399-1.877-.062-.326-.194-.636-.374-.917-.117-.164-.243-.321-.376-.472-.13-.333-.253-.319-.368,.041l-1.088,.406,.217-.028-1.21-.468c.107,.183,.009,.336,.016,.333-.939,.382-1.076,1.483-.166,1.939-.18-.09-.118-.024-.098,.166,.021,.194-.026,.422-.04,.612-.029,.387-.059,.769-.017,1.157,.091,.837,.524,1.509,1.291,1.882,1.676,.816,3.785,.098,5.323-.706,1.838-.96,3.044-2.485,3.194-4.588,.136-1.899-.512-3.942,.251-5.758l-2.716,.457c1.548,2.92,.234,7.541-3.05,8.68-.597,.207-1.353,.699-1.165,1.446,.172,.686,1.158,.869,1.732,.67,4.861-1.686,7.616-7.41,5.127-12.107-.519-.979-2.367-.373-2.716,.457-.643,1.531-.513,3.09-.423,4.706,.084,1.498,.151,3.166-1.283,4.054-.561,.348-2.49,1.454-2.644,.227-.18-1.425,.49-2.595-1.117-3.401l-.166,1.939c1.406-.571,2.093-2.142,1.311-3.478-.215-.368-.82-.519-1.21-.468-1.348,.176-2.69,1.324-1.872,2.767,.291,.514,.899,.89,.662,1.544-.226,.624-.979,.969-1.547,1.168-.553,.194-2.097,.679-2.487,.337-.251-.22,.172-1.077,.096-1.581-.068-.447-.374-.783-.724-1.052-.243-.186-.849-.375-.981-.662-.092-.2,.044-.563,.067-.784,.042-.408,.068-.781,.034-1.191-.044-.538-.167-1.032-.384-1.525-1.06-2.407-3.576-3.824-5.826-4.939-1.101-.545-3.056,.773-1.932,1.892,1.83,1.822,3.66,3.644,5.49,5.466,.972,.968,3.437-.522,2.216-1.738h0Z"/>
    <path class="cls-7" d="M282.369,353.899c2.929,3.124,9.584,1.262,10.213-3.063,.351-2.412-1.387-4.555-2.674-6.415-1.507-2.177-3.112-4.284-4.799-6.324-.465-.562-3.202,.427-2.726,1.003,1.372,1.659,2.689,3.362,3.938,5.116,1.104,1.549,2.396,3.166,3.067,4.963,.597,1.601,.39,3.409-.906,4.614-.132,.123-.272,.224-.42,.327-.055,.038-.338,.141-.142,.085,.207-.059-.141,.003-.208-.002-.165-.012-.324-.027-.486-.06-.839-.171-1.552-.628-2.132-1.246-.518-.552-3.21,.487-2.726,1.003h0Z"/>
    <path class="cls-7" d="M282.61,354.997c.014-.003,.029-.006,.043-.009l-.394,.069c.038-.006,.076-.009,.115-.009l-.372-.003c.043,.001,.085,.006,.127,.014l-.333-.07c.056,.012,.109,.03,.161,.054l-.278-.131c.079,.037,.15,.086,.215,.143l-.207-.187c.091,.083,.165,.18,.221,.289l-.119-.238c.051,.104,.084,.215,.092,.33l-.016-.266c.004,.086-.005,.17-.031,.252l.085-.266c-.014,.042-.032,.081-.053,.12-.076,.126-.102,.259-.078,.398-.009,.138,.033,.261,.127,.371,.092,.12,.207,.204,.346,.253,.145,.082,.302,.127,.472,.135l.372,.003c.269-.024,.526-.092,.77-.206,.307-.157,.578-.359,.749-.668,.015-.028,.029-.056,.041-.086,.043-.11,.08-.226,.109-.341,.015-.059,.021-.121,.02-.182-.005-.214-.011-.417-.102-.611s-.179-.382-.336-.531c-.109-.103-.221-.217-.351-.297-.025-.015-.05-.028-.075-.041-.116-.057-.234-.121-.357-.163-.082-.028-.171-.042-.255-.059-.086-.018-.176-.043-.265-.048-.134-.008-.273-.006-.407-.004-.017,0-.033,0-.05,.002-.019,.001-.038,.004-.058,.007-.146,.021-.294,.045-.438,.078-.194,.045-.373,.122-.536,.231-.158,.079-.296,.186-.414,.321-.112,.109-.185,.237-.218,.385-.058,.127-.067,.26-.027,.399l.119,.238c.13,.154,.291,.26,.485,.318l.333,.07c.259,.024,.515,.002,.766-.067h0Z"/>
    <path class="cls-7" d="M219.504,334.25c-1.019-.732-2.179-1.24-3.193-1.979-.112-.082-.22-.168-.329-.255-.198-.158,.161,.159-.018-.016-.052-.051-.105-.1-.156-.152-.192-.197-.352-.411-.499-.643-.07-.11-.045-.095,0,.011-.028-.065-.059-.129-.084-.196-.052-.136-.094-.276-.124-.419-.016-.074-.028-.149-.038-.224-.007-.053-.013-.287-.011-.06-.002-.172,.007-.341,.025-.512l-2.314,1.051c.368,.096,.729,.213,1.081,.355,.088,.035,.175,.072,.262,.11-.249-.109,.013,.01,.068,.036,.17,.084,.338,.173,.503,.267,.33,.188,.648,.397,.952,.624,.152,.114,.3,.233,.446,.354,.19,.156-.082-.083,.081,.072,.08,.076,.162,.151,.241,.229,.543,.532,1.022,1.128,1.422,1.773,.1,.161,.194,.326,.284,.493,.032,.062,.03,.056-.007-.018,.021,.042,.042,.085,.063,.128,.041,.085,.081,.171,.12,.258,.161,.362,.295,.734,.407,1.113l2.301-1.307c-.32-.062-.636-.139-.947-.237-.14-.044-.278-.091-.416-.142-.076-.028-.152-.058-.228-.088-.028-.011-.277-.116-.132-.053,.145,.063-.128-.061-.128-.061-.059-.028-.117-.058-.175-.087-.145-.074-.288-.153-.428-.235-.281-.165-.553-.345-.814-.54-.118-.088-.233-.178-.346-.272-.054-.044-.167-.144-.055-.044-.061-.054-.121-.109-.18-.165-.225-.212-.439-.436-.64-.671-.425-.496-.788-1.038-1.089-1.617-.123-.236-.589-.344-.812-.366-.363-.036-.815,.043-1.141,.207-.563,.283-1.041,.761-.711,1.393,1.29,2.472,3.809,4.29,6.54,4.818,.575,.111,1.113,.063,1.633-.236,.347-.199,.803-.612,.667-1.072-.981-3.325-3.77-5.978-7.116-6.855-.492-.129-1.012-.072-1.473,.143-.35,.164-.796,.482-.841,.908-.084,.79,.035,1.516,.407,2.215,.311,.585,.794,1.037,1.313,1.441,1.05,.819,2.296,1.341,3.375,2.117,.56,.402,1.561,.186,2.07-.204,.476-.365,.769-.967,.186-1.387h0Z"/>
    <path class="cls-7" d="M264.291,339.199c.286-.206,.583-.396,.885-.577,.141-.085,.283-.167,.426-.25,.263-.153-.3,.171-.036,.021,.071-.041,.142-.082,.214-.122,.655-.375,1.323-.742,1.917-1.211,.598-.471,1.161-1.019,1.511-1.705,.364-.714,.435-1.457,.351-2.243-.027-.257-.387-.472-.597-.531-.359-.101-.737-.087-1.096,.008-3.644,.956-6.667,3.739-7.737,7.368-.098,.333,.211,.608,.472,.725,.406,.182,.809,.137,1.234,.054,3.008-.582,5.769-2.58,7.189-5.302,.319-.612-.284-1.07-.854-1.108-.67-.044-1.559,.215-1.895,.858-.143,.275-.299,.542-.471,.8-.045,.068-.092,.135-.138,.201,.06-.086,.077-.103,.004-.009-.1,.128-.201,.256-.307,.38-.201,.235-.415,.459-.64,.671-.025,.023-.16,.169-.18,.165,.028,.006,.194-.161,.033-.03-.126,.103-.253,.205-.384,.303-.236,.176-.481,.336-.73,.49-.278,.172,.195-.101,.025-.014-.073,.037-.143,.078-.216,.115-.13,.067-.262,.131-.396,.191-.149,.067-.301,.124-.451,.188-.18,.077,.373-.123,.055-.019-.062,.02-.124,.041-.186,.061-.311,.098-.627,.175-.947,.237l1.706,.78c.027-.091,.055-.182,.084-.272-.065,.203,.022-.059,.038-.101,.067-.178,.139-.353,.217-.526,.156-.346,.334-.682,.532-1.005,.099-.162,.205-.319,.312-.476-.114,.168-.014,.018,.047-.061,.048-.063,.097-.125,.146-.187,.238-.296,.493-.578,.765-.844,.123-.12,.246-.25,.383-.355-.264,.203-.025,.025,.035-.024,.074-.06,.148-.118,.224-.176,.304-.231,.632-.419,.946-.633-.319,.218-.069,.042,.01,0,.084-.044,.168-.088,.253-.129,.17-.084,.343-.162,.518-.235,.073-.03,.211-.053,.264-.105-.074,.071-.318,.11-.064,.025,.195-.065,.393-.123,.592-.175l-1.693-.523c.003,.026,.014,.31,.012,.09,0,.082,.001,.164-.003,.246-.007,.142-.024,.283-.052,.423-.014,.073-.033,.144-.052,.216-.036,.143-.041,.087,.008-.017-.06,.129-.112,.259-.183,.383-.035,.061-.074,.119-.111,.179-.117,.187,.168-.196,.009-.018-.088,.098-.17,.199-.263,.293-.043,.043-.088,.084-.131,.127-.182,.182,.222-.177,.033-.026-.119,.094-.237,.189-.36,.277-.234,.169-.477,.324-.723,.474-.138,.084-.278,.166-.418,.247-.076,.044-.346,.194,.038-.021-.072,.04-.143,.082-.214,.122-.627,.359-1.259,.713-1.846,1.135-.443,.318-.799,1.029-.186,1.387s1.512,.197,2.07-.204h0Z"/>
    <g>
      <path class="cls-2" d="M237.65,382.65c1.277,2.902,.407,6.415-1.503,8.946s-4.709,4.236-7.554,5.636"/>
      <path class="cls-5" d="M236.201,383.039c1.128,2.683,.484,5.758-1.19,8.076-1.755,2.432-4.408,4.008-7.047,5.314-.508,.251-1.11,.838-.702,1.427,.394,.568,1.441,.435,1.958,.179,3.123-1.546,6.265-3.441,8.329-6.324,1.925-2.689,2.877-6.292,1.549-9.449-.275-.653-1.091-.715-1.701-.552-.457,.122-1.47,.68-1.197,1.328h0Z"/>
    </g>
    <g>
      <path class="cls-2" d="M239.125,383.092c.596,2.999,1.524,6.02,3.423,8.417s6.309,5.774,9.309,7.087"/>
      <path class="cls-5" d="M237.676,383.48c.736,3.645,1.976,7.089,4.642,9.771,2.321,2.334,5.152,4.475,8.168,5.821,.532,.238,1.339-.031,1.854-.211,.113-.039,1.289-.56,.886-.74-2.959-1.321-5.721-3.407-8.021-5.674-2.681-2.642-3.902-6.122-4.632-9.743-.103-.51-3.022,.162-2.898,.776h0Z"/>
    </g>
    <g>
      <path class="cls-2" d="M321.759,281.961c-2.611,2.783-5.121,5.661-7.524,8.625,3.872-3.365,6.954-7.633,8.93-12.366-3.878,5.297-7.756,10.595-11.634,15.892,4.953-4.326,8.408-10.088,11.516-15.884-4.808,5.018-9.191,10.442-13.089,16.195-.262,.387-.529,.795-.577,1.26-.053,.517,.174,1.017,.396,1.488,.947,2.007,1.893,4.015,2.84,6.022,.224-1.002,.234-2.051,.028-3.057,.322,1.657,1.592,3.095,3.196,3.62"/>
      <path class="cls-5" d="M320.45,282.081c-2.649,2.833-5.196,5.757-7.643,8.766-.301,.37,.937,.282,.974,.278,.585-.071,1.31-.26,1.763-.659,3.916-3.447,7.008-7.705,9.049-12.507,.232-.546-2.486,.017-2.855,.522-3.878,5.297-7.756,10.595-11.634,15.892-.282,.385,.92,.284,.974,.278,.584-.071,1.311-.26,1.763-.659,5.01-4.437,8.496-10.185,11.635-16.024,.223-.415-.869-.291-.974-.278-.545,.066-1.366,.243-1.763,.659-3.615,3.787-7.004,7.787-10.125,11.991-.782,1.054-1.548,2.12-2.297,3.199-.55,.792-1.403,1.702-1.38,2.725,.026,1.164,.921,2.418,1.406,3.446,.609,1.29,1.217,2.581,1.826,3.871,.274,.581,2.768-.085,2.876-.649,.207-1.077,.237-2.1,.049-3.184l-2.898,.776c.413,1.743,1.599,3.093,3.279,3.719,.579,.216,1.301,.024,1.862-.18,.102-.037,1.315-.63,.872-.795-1.617-.603-2.717-1.842-3.114-3.521-.139-.586-3.014,.105-2.898,.776,.172,.992,.184,1.935-.007,2.93l2.876-.649c-.541-1.147-1.082-2.294-1.623-3.441-.496-1.052-1.229-2.178-1.518-3.307-.304-1.186,.613-2.128,1.247-3.04,.748-1.078,1.514-2.145,2.297-3.199,3.048-4.107,6.356-8.01,9.888-11.709l-2.736,.381c-3.082,5.732-6.478,11.386-11.398,15.743l2.736-.381c3.878-5.297,7.756-10.595,11.634-15.892l-2.855,.522c-1.996,4.698-4.979,8.852-8.811,12.226l2.736-.381c2.37-2.914,4.84-5.741,7.405-8.484,.431-.461-.388-.463-.676-.444-.573,.037-1.522,.235-1.941,.684h0Z"/>
    </g>
    <path class="cls-3" d="M321.068,287.82c.565,0,1.629-.202,1.918-.77s-.247-.772-.764-.772c-.565,0-1.629,.202-1.918,.77s.247,.772,.764,.772h0Z"/>
    <g>
      <path class="cls-2" d="M318.331,289.258c-1.055,1.67-.666,4.783-2.311,6.09-2.006,1.594-1.793-1.044-2.458-2.048-.982,.839,.006,2.378-.633,3.411-.127,.204-1.019,.354-1.022,.373-.201,1.204,1.203,.558,1.639-.396,.897-1.963,1.638-3.996,2.216-6.075-1.288,1.904-2.239,4.035-2.797,6.264,1.916-2.447,3.708-4.991,5.367-7.619Z"/>
      <path class="cls-5" d="M316.947,289.097c-.555,.908-.73,2.019-.935,3.048-.054,.271-.108,.542-.171,.811-.023,.1-.047,.199-.073,.298-.011,.041-.132,.433-.056,.208-.082,.245-.172,.486-.288,.717-.056,.111-.117,.219-.183,.325,.16-.26-.026,.019-.071,.072-.029,.035-.059,.069-.091,.102-.102,.102-.084,.088,.053-.043-.055,.101-.247,.188-.339,.256-.237,.176,.247-.206-.067,.022,.177-.128,.408-.147,.713-.112-.132-.015-.071,0,.184,.048-.113-.043-.063-.018,.148,.077-.178-.102,.086-.029,.057,.067,.003-.01-.116-.157-.129-.175-.158-.222,.037,.147-.013-.021-.207-.707-.401-1.507-.798-2.133-.233-.368-.808-.445-1.196-.416-.538,.039-.956,.274-1.342,.631-.443,.41-.689,1.013-.717,1.611-.014,.294,.016,.591,.038,.883,.004,.049,.023,.357,.015,.191,.006,.136,.011,.273,.005,.409-.005,.117-.024,.23-.039,.346-.016,.12,.012-.015,.02-.038-.008,.024-.079,.18-.078,.181-.028-.034,.364-.369,.411-.405,.163-.123,.103-.07,.036-.037,.413-.206,.132-.055-.013-.017-.714,.186-1.533,.466-1.606,1.333-.053,.634,.27,1.164,.884,1.363,.754,.244,1.584,.017,2.241-.378,1.162-.698,1.593-1.892,2.08-3.092,.626-1.543,1.151-3.125,1.6-4.729,.149-.532-.552-.897-.964-.933-.561-.05-1.377,.121-1.715,.624-1.407,2.096-2.431,4.349-3.053,6.799-.136,.535,.542,.896,.964,.933,.592,.053,1.332-.135,1.715-.624,1.978-2.531,3.823-5.164,5.541-7.879,.383-.606-.337-1.159-.881-1.208-.759-.068-1.48,.24-1.888,.884-1.594,2.52-3.334,4.978-5.194,7.359l2.678,.309c.503-1.981,1.451-4.106,2.541-5.73l-2.678-.309c-.436,1.561-.976,3.093-1.602,4.588-.151,.362-.307,.722-.47,1.079-.034,.075-.105,.172-.121,.251-.024,.117,.114-.123,.029-.037-.04,.04-.076,.093-.112,.137-.019,.022-.039,.044-.06,.065-.051,.051-.04,.043,.032-.026,.074-.066,.084-.076,.03-.031-.032,.027-.065,.052-.099,.077-.146,.126,.074-.039,.12-.066-.042,.024-.087,.044-.131,.063,.168-.071,.341-.128,.524-.141,.233-.016,.543,.047,.737,.175l.136,.133c-.044-.065-.041-.055,.009,.03,.027,.042,.055,.064,.031,.07,.003,.077,.006,.083,.008,.018,.002-.047,.008-.094,.016-.14l-.828,.959c-.47,.243-.408,.137-.203,.094,.071-.015,.143-.033,.213-.052,.281-.073,.569-.165,.832-.288,.685-.321,1.081-.903,1.208-1.639,.04-.233,.036-.472,.025-.707-.008-.161-.02-.322-.032-.483-.003-.037-.025-.436-.018-.24-.008-.233,.004-.455,.034-.686l.021-.092c-.037,.125-.033,.129,.014,.011,.065-.117,.06-.111-.014,.019,.045-.053,.093-.101,.146-.146l-2.538,.214c.026,.041,.123,.251,.054,.083s.012,.041,.027,.08c.062,.16,.112,.324,.16,.489,.088,.299,.164,.604,.277,.896,.365,.943,1.104,1.516,2.163,1.414,1.271-.123,2.402-.976,3.068-2.032,.517-.819,.732-1.804,.922-2.742,.102-.503,.192-1.008,.318-1.505,.018-.073,.113-.399,.049-.197,.038-.12,.079-.24,.125-.357,.087-.224,.192-.439,.318-.644,.373-.61-.329-1.158-.881-1.208-.749-.067-1.492,.236-1.888,.884Z"/>
    </g>
    <g>
      <path class="cls-2" d="M322.463,281.422c-.062,1.34-.32,2.671-.763,3.938,.294-1.772,.719-3.522,1.272-5.231-2.986,8.111-3.72,16.935-6.911,24.968-.353-.57-.706-1.14-1.059-1.709-.418,.535-.55,1.28-.342,1.927"/>
      <path class="cls-5" d="M321.014,281.811c-.082,1.309-.333,2.553-.746,3.796l2.863-.492c.305-1.775,.729-3.515,1.272-5.231,.2-.631-2.594-.248-2.863,.492-2.953,8.142-3.751,16.891-6.911,24.968l2.88-.634c-.353-.57-.706-1.14-1.059-1.709-.458-.739-2.523,.086-2.88,.634-.428,.657-.535,1.305-.36,2.069,.154,.672,3.065-.048,2.898-.776-.155-.675-.049-1.211,.325-1.784l-2.88,.634c.353,.57,.706,1.14,1.059,1.709,.409,.661,2.634-.005,2.88-.634,3.16-8.077,3.958-16.826,6.911-24.968l-2.863,.492c-.544,1.717-.967,3.457-1.272,5.231-.13,.755,2.636,.191,2.863-.492,.442-1.332,.693-2.681,.78-4.08,.029-.465-2.842-.118-2.898,.776h0Z"/>
    </g>
    <g>
      <path class="cls-6" d="M205.933,356.029l-.861,6.326"/>
      <path class="cls-1" d="M204.494,356.247l-.861,6.326c-.079,.578,.848,.512,1.206,.452,.377-.063,.768-.166,1.101-.358,.186-.108,.539-.292,.572-.53l.861-6.326c.079-.578-.848-.512-1.206-.452-.377,.063-.768,.166-1.101,.358-.186,.108-.539,.292-.572,.53h0Z"/>
    </g>
    <g>
      <path class="cls-6" d="M210.975,358.556l-.786,5.071"/>
      <path class="cls-1" d="M209.521,358.72l-.786,5.071c-.188,1.216,2.742,.741,2.907-.327l.786-5.071c.188-1.216-2.742-.741-2.907,.327h0Z"/>
    </g>
    <g>
      <path class="cls-6" d="M238.375,383.092l-6.854-5.416c-.497-.417-.396-1.224,.199-1.482,.492-.213,1.132-.274,1.673-.253,2.8,.111,5.599,.222,8.399,.333,1.478,.059,2.188,1.841,1.155,2.9l-3.248,3.329"/>
      <path class="cls-1" d="M239.499,382.283c-2.15-1.699-4.3-3.397-6.449-5.096-.121-.096-.253-.186-.367-.29-.139-.127,.268,.252-.008-.045,.041,.044-.066-.12,0-.102-.049-.013-.325,.332-.356,.262-.011-.025,.536-.064,.56-.065,.451-.01,.911,.036,1.362,.054,.984,.039,1.967,.078,2.951,.117,.908,.036,1.816,.072,2.724,.108,.451,.018,.914,.007,1.362,.054,.175,.018,.141-.043,.364,.15,.46,.398,.381,1.062-.012,1.472-1.035,1.079-2.089,2.141-3.133,3.211-.465,.476-.245,1.126,.356,1.328,.694,.233,1.55-.037,2.049-.549,1.049-1.075,2.108-2.142,3.148-3.226,.84-.875,1.132-2.081,.486-3.16-.944-1.575-3.167-1.275-4.726-1.337-2.145-.085-4.311-.267-6.457-.24-1.033,.013-2.312,.236-3.059,1.017-.557,.584-.758,1.455-.279,2.154,.274,.4,.809,.722,1.184,1.018l2.18,1.723c1.291,1.02,2.582,2.04,3.873,3.06,.951,.751,3.52-.613,2.248-1.618h0Z"/>
    </g>
    <g>
      <path class="cls-6" d="M273.013,363.618l-2.244,7.978"/>
      <path class="cls-1" d="M271.556,363.771l-2.244,7.978c-.186,.66,.869,.809,1.287,.756,.63-.081,1.435-.382,1.626-1.061l2.244-7.978c.186-.66-.869-.809-1.287-.756-.63,.081-1.435,.382-1.626,1.061h0Z"/>
    </g>
    <g>
      <path class="cls-6" d="M278.123,365.321l-2.109,5.062"/>
      <path class="cls-1" d="M276.739,365.159c-.703,1.687-1.406,3.375-2.109,5.062-.267,.64,.249,1.153,.881,1.21,.655,.059,1.605-.208,1.888-.885,.703-1.687,1.406-3.375,2.109-5.062,.267-.64-.249-1.153-.881-1.21-.655-.059-1.605,.208-1.888,.885h0Z"/>
    </g>
    <path class="cls-7" d="M238.087,321.484c-.393-4.493-.48-9.005-.26-13.509,.025-.505-2.853-.131-2.898,.776-.22,4.505-.134,9.017,.26,13.509,.054,.612,2.972,.069,2.898-.776h0Z"/>
    <path class="cls-7" d="M244.778,321.464l.572-11.383c.021-.421-2.855-.079-2.898,.776l-.572,11.383c-.021,.421,2.855,.079,2.898-.776h0Z"/>
    <path class="cls-7" d="M253.112,319.964c.368-4.364,.736-8.728,1.104-13.092,.048-.575-.827-.492-1.201-.435-.37,.056-1.629,.34-1.675,.878-.368,4.364-.736,8.728-1.104,13.092-.048,.575,.827,.492,1.201,.435,.37-.056,1.629-.34,1.675-.878h0Z"/>
    <path class="cls-7" d="M202.875,351.258c.168,.002,.436,.089,.624,.155l2.356-1.215c-.396-.08-.677-.259-.941-.563l-1.214,1.057c-.455,.112,.39-.039,.011-.006,.047-.004,.481-.011,.322-.016,.3,.009,.603,.047,.898,.102,.699,.13,1.381,.353,2.063,.548,1.533,.439,3.082,.732,4.673,.432,.377-.071,.76-.174,1.102-.354,.168-.088,.519-.285,.579-.501,.155-.549-.954-.437-1.19-.392-.086,.016-.171,.031-.257,.045,.141-.023,.084-.005-.025,0-.086,.004-.172,.008-.257,.009,.127,0-.029-.001-.071-.004-.326-.024-.651-.061-.97-.131-.72-.156-1.422-.38-2.131-.579-1.684-.473-3.317-.657-5.036-.232-.271,.067-1.665,.538-1.214,1.057,.336,.387,.8,.642,1.303,.743,.679,.137,1.423-.017,2.034-.338,.31-.163,.951-.658,.322-.877-.577-.201-1.159-.257-1.767-.263-.613-.006-1.518,.243-1.931,.725-.441,.515,.391,.595,.718,.599h0Z"/>
    <path class="cls-7" d="M287.61,351.8c-.093,.158-.194,.31-.303,.456l.179-.238c-.215,.285-.461,.544-.733,.776l.257-.216c-.203,.171-.419,.324-.648,.46-.142,.086-.257,.198-.346,.335-.096,.103-.156,.226-.179,.367-.038,.256,.103,.511,.327,.636,.29,.162,.647,.211,.974,.171l.394-.072c.251-.066,.484-.171,.699-.316,.177-.105,.347-.221,.509-.347,.242-.189,.48-.389,.697-.607,.352-.353,.661-.762,.913-1.191,.13-.222,.127-.51-.035-.714-.092-.111-.205-.187-.339-.229-.145-.074-.301-.113-.467-.117-.385-.021-.793,.039-1.14,.211-.301,.148-.584,.338-.758,.635h0Z"/>
    <path class="cls-7" d="M267.484,355.388c.802,.522,1.838,.42,2.733,.258,.437-.079,.868-.195,1.299-.304,.05-.013,.1-.025,.15-.037,.195-.049-.204,.046-.207,.046,.082-.016,.163-.035,.244-.051,.039-.007,.086-.009,.123-.022-.05,.017-.368,.049-.14,.022,.041-.005,.083-.007,.125-.013,.136-.019-.321,.012-.09,.004,.359-.012,.708-.065,1.056-.158,.325-.087,.705-.208,.993-.391,.116-.073,.396-.22,.349-.395-.045-.168-.39-.171-.5-.168-.967,.031-1.886,.261-2.82,.493-.243,.061,.446-.094,.098-.024-.076,.015-.153,.027-.23,.042,.262-.037,.324-.047,.186-.03-.038,.004-.075,.008-.113,.01,.216-.009,.264-.012,.142-.009-.037,0-.074,0-.111-.001-.101-.005-.074-.003,.083,.007-.037-.004-.073-.01-.109-.016-.073-.013-.146-.03-.217-.052,.165,.051-.066-.036-.096-.051-.073-.036-.142-.078-.211-.123-.178-.116-.546-.077-.73-.059-.374,.036-.775,.129-1.127,.259-.147,.054-1.275,.504-.881,.761h0Z"/>
    <path class="cls-5" d="M309.853,301.151c.736,1.076,1.378,2.213,1.92,3.399,.08,.174,.353,.19,.508,.197,.342,.016,.733-.054,1.059-.146,.338-.095,.697-.205,.99-.403,.106-.072,.418-.257,.341-.424-.542-1.186-1.184-2.323-1.92-3.399-.116-.17-.311-.188-.508-.197-.342-.016-.733,.054-1.059,.146-.338,.095-.697,.205-.99,.403-.089,.06-.44,.279-.341,.424h0Z"/>
    <path class="cls-5" d="M313.8,299.766l-2.405-3.309c-.118-.163-.607-.163-.755-.155-.322,.017-.635,.082-.942,.181-.269,.087-.567,.198-.791,.376-.165,.132-.337,.275-.319,.508,.102,1.322,.514,2.601,1.203,3.733,.123,.202,.296,.252,.53,.281,.339,.042,.745-.018,1.068-.111,.337-.097,.703-.216,.981-.438,.112-.089,.426-.331,.319-.508-.689-1.132-1.101-2.412-1.203-3.733l-2.806,.911,2.405,3.309c.12,.165,.605,.16,.755,.155,.37-.012,.789-.103,1.132-.243,.273-.112,.614-.246,.797-.488l.11-.172c.043-.117,.016-.216-.079-.297h0Z"/>
    <path class="cls-5" d="M311.343,300.524c1.629,1.348,2.589,3.253,2.752,5.357l2.898-.776c-.102-1.167-.269-2.885,.905-3.608l-2.566,.318c.203,1.027,.316,2.063,.311,3.111-.003,.523-.032,1.045-.092,1.565-.031,.272-.065,.545-.118,.814-.044,.223-.282,.603,.109,.411l2.029-.356-.162-.029,.264,.193c-1.98-5.219,.286-10.596,1.409-15.727l-2.881,.633c-.03,1.158-.887,2.351-1.39,3.358-.269,.539-.538,1.077-.807,1.616-.128,.256-.248,.518-.388,.769-.253,.454-.658,.509,.166,.309l1.063-.132-.123-.027c-.614-.196-1.48,.075-2.029,.356-.288,.147-.967,.607-.341,.807,.928,.296,2.085-.021,2.9-.499,.774-.453,1.16-1.159,1.549-1.938,.449-.898,.897-1.795,1.346-2.693,.438-.875,.927-1.702,.953-2.703,.015-.568-2.739-.014-2.881,.633-.958,4.375-2.706,8.77-2.122,13.325,.071,.551,.178,1.098,.326,1.633,.102,.37,.202,.994,.528,1.211,.759,.505,2.513-.186,3.024-.817,.583-.72,.526-2.157,.557-3.041,.043-1.197-.071-2.385-.303-3.558-.145-.733-2.247,.121-2.566,.318-1.643,1.011-1.721,2.78-1.569,4.526,.052,.595,2.962,.054,2.898-.776-.17-2.193-1.233-4.188-2.925-5.589-.625-.518-3.215,.602-2.725,1.008h0Z"/>
    <path class="cls-5" d="M311.364,297.467c.21,.045,.018,.005-.023-.025-.067-.048,.046,.047-.061-.042-.105-.088-.211-.187-.284-.304-.13-.207-.209-.531-.229-.794-.051-.662,.372-1.22,.801-1.677,.079-.084,.148-.145,.303-.28,.142-.124,.287-.244,.433-.363,.352-.29,.705-.58,1.057-.87,.74-.609,1.48-1.218,2.219-1.827,.141-.116,.366-.331,.308-.548-.057-.212-.363-.299-.541-.321-.664-.083-1.523,.116-2.049,.549-.828,.681-1.656,1.363-2.483,2.044-.76,.625-1.591,1.229-2.212,2.001-.522,.65-.864,1.447-.704,2.291,.166,.879,.806,1.406,1.65,1.586,.649,.139,1.541-.14,2.049-.549,.154-.124,.368-.325,.308-.548-.061-.226-.354-.281-.541-.321h0Z"/>
    <path class="cls-5" d="M320.549,285.547c-.02,.445-.062,.887-.126,1.328l.02-.134c-.103,.692-.26,1.374-.469,2.041-.155,.496,.945,.327,1.161,.286,.376-.072,.761-.172,1.104-.345,.186-.094,.526-.233,.593-.449,.356-1.134,.56-2.316,.614-3.503,.008-.172-.452-.203-.51-.206-.342-.019-.734,.05-1.06,.142-.338,.096-.698,.206-.989,.407-.161,.111-.329,.221-.339,.434h0Z"/>
    <path class="cls-5" d="M317.737,285.987c-3.225,4.085-5.195,8.929-7.137,13.71l2.903-.549c-.282-1.803-.232-3.613-.163-5.431,.051-1.344-2.636-.645-2.909,.322-.155,.551-.31,1.102-.466,1.653-.143,.506,.559,.707,.909,.727,.577,.034,1.316-.165,1.722-.596,1.639-1.74,3.235-3.507,4.374-5.624,.912-1.694,1.669-3.773,3.266-4.96,.428-.318,.812-.858,.226-1.237-.54-.348-1.58-.113-2.059,.243-1.824,1.356-2.817,3.245-3.839,5.22-1.135,2.192-2.634,3.983-4.32,5.772l2.631,.132c.155-.551,.31-1.102,.466-1.653l-2.909,.322c-.074,1.964-.132,3.936,.173,5.885,.09,.575,1.094,.524,1.467,.451,.609-.119,1.193-.402,1.436-1.001,1.88-4.629,3.827-9.296,6.948-13.249,.44-.558-.375-.932-.814-.958-.719-.042-1.46,.254-1.905,.819h0Z"/>
    <path class="cls-5" d="M316.531,290.363l-3.63,9.35,2.876-.651c.138-2.487,.828-4.911,2.006-7.106,.565-1.053,1.238-2.056,2.015-2.965,.448-.525,2.222-1.805,1.563-2.611-.315-.385-1.158-.138-1.561-.03-.119,.032-1.566,.527-1.337,.807,.385,.471-.191,.928-.509,1.249-.427,.43-.831,.885-1.213,1.356-.775,.952-1.446,1.989-2.001,3.084-1.101,2.173-1.726,4.563-1.861,6.993-.027,.483,2.67-.122,2.876-.651l3.63-9.35c.181-.467-.974-.276-1.15-.244-.419,.076-1.514,.281-1.704,.77h0Z"/>
  </g>
  <g id="Layer_6" data-name="Layer 6">
    <path class="cls-4" d="M306.897,235.566c5.909-8.026,11.056-16.596,15.354-25.588,.728-1.522-2.2-1.615-2.786-.388-4.209,8.805-9.228,17.183-15.015,25.042-1.101,1.496,1.614,2.065,2.446,.934h0Z"/>
    <path class="cls-4" d="M318.286,228.322c2.709-2.713,4.987-5.841,6.749-9.245,.266-.513-1.005-.413-1.187-.38-.546,.097-1.399,.299-1.683,.847-1.705,3.293-3.905,6.29-6.525,8.914-.474,.475,.413,.599,.714,.585,.648-.029,1.458-.247,1.931-.721h0Z"/>
    <path class="cls-4" d="M327.646,228.03l2.25-2.25c.157-.157,.351-.388,.285-.635-.063-.235-.352-.367-.564-.408-.355-.068-.737-.043-1.082,.058-.339,.099-.712,.236-.967,.491l-2.25,2.25c-.157,.157-.351,.388-.285,.635,.063,.235,.352,.367,.564,.408,.355,.068,.737,.043,1.082-.058,.339-.099,.712-.236,.967-.491h0Z"/>
    <path class="cls-4" d="M166.758,229.251c5.807-7.504,11.614-15.009,17.421-22.513,1.107-1.431-1.642-1.738-2.4-.759-5.807,7.504-11.614,15.009-17.421,22.513-1.107,1.431,1.642,1.738,2.4,.759h0Z"/>
    <path class="cls-4" d="M176.929,224.922l8.671-11.638c.423-.567-.361-.938-.816-.966-.706-.043-1.478,.248-1.905,.821l-8.671,11.638c-.423,.567,.361,.938,.816,.966,.706,.043,1.478-.248,1.905-.821h0Z"/>
    <path class="cls-4" d="M185.327,224.632l2.812-2.25c.16-.128,.351-.387,.291-.612-.061-.229-.354-.349-.558-.385-.702-.122-1.496,.107-2.049,.549l-2.812,2.25c-.16,.128-.351,.387-.291,.612,.061,.229,.354,.349,.558,.385,.702,.122,1.496-.107,2.049-.549h0Z"/>
  </g>
</svg>